<svg width="260" height="52" viewBox="0 0 260 52" fill="none" xmlns="http://www.w3.org/2000/svg">
<rect width="260" height="52" fill="#BF0000"/>
<path d="M68.32 19.56H78.92V21.26H68.32V19.56ZM67.98 24.38H79.3V26.08H67.98V24.38ZM67.9 31.88H79.34V33.58H67.9V31.88ZM68.78 21.98H78.62V23.6H68.78V21.98ZM70.5 18.02H72.58V25.14H70.5V18.02ZM74.64 18.02H76.76V25.14H74.64V18.02ZM72.56 25.16H74.64V32.34H72.56V25.16ZM76.22 26.82H78.4V34.62C78.4 35.62 78.2 36.16 77.54 36.48C76.86 36.8 75.92 36.8 74.62 36.8C74.52 36.24 74.26 35.42 74 34.88C74.78 34.92 75.64 34.92 75.88 34.92C76.14 34.9 76.22 34.84 76.22 34.6V26.82ZM68.96 26.82H77.14V28.52H71.08V36.84H68.96V26.82ZM70.02 29.42H77.14V30.9H70.02V29.42ZM62.46 31.86L64.56 32.36C64.04 34.04 63.12 35.76 62.18 36.84C61.76 36.52 60.88 35.94 60.38 35.66C61.3 34.72 62.08 33.28 62.46 31.86ZM64.82 32.58L66.58 31.82C67.26 32.84 68 34.2 68.32 35.08L66.48 35.96C66.18 35.06 65.46 33.64 64.82 32.58ZM63.54 24.3V26.16H65.52V24.3H63.54ZM63.54 27.92V29.82H65.52V27.92H63.54ZM63.54 20.68V22.52H65.52V20.68H63.54ZM61.5 18.76H67.62V31.72H61.5V18.76ZM84.58 19.14H90.24V21.58H84.58V19.14ZM89.06 19.14H91.54C91.54 22.94 92.08 30.3 99.5 34.64C98.94 35.08 97.98 36.14 97.56 36.74C89.94 32.16 89.06 23.22 89.06 19.14ZM88.2 23.52L90.96 24.02C89.56 29.96 86.9 34.26 82.72 36.78C82.28 36.26 81.16 35.26 80.54 34.82C84.72 32.7 87.12 28.82 88.2 23.52ZM110.96 27.74H118.46V29.48H110.96V27.74ZM110.96 30.9H118.46V32.66H110.96V30.9ZM110.92 34.06H119.38V36.04H110.92V34.06ZM107.98 19.88H119.28V23.54H117.16V21.9H110.02V23.54H107.98V19.88ZM113.68 26.06H115.88V35H113.68V26.06ZM111.7 24.4H118.9V26.4H111.7V36.82H109.46V26.48L111.48 24.4H111.7ZM112.76 18L115.04 18.42C113.96 22.76 111.96 26.22 109.02 28.38C108.7 27.92 107.88 26.98 107.4 26.58C110.14 24.78 111.92 21.74 112.76 18ZM114.9 22.38L117.12 22.84C116.6 23.94 116.06 25.02 115.62 25.76L113.82 25.3C114.22 24.48 114.68 23.26 114.9 22.38ZM100.94 19.2H108.16V21.38H100.94V19.2ZM103.2 25.08H107.84V34.4H103.2V32.34H105.82V27.16H103.2V25.08ZM103 20.36L105.26 20.72C104.66 25.04 103.58 29.28 101.54 32C101.32 31.44 100.68 30.22 100.26 29.68C101.82 27.48 102.6 24.02 103 20.36ZM102.26 25.08H104.2V35.94H102.26V25.08ZM131.96 19.62H134.12C133.74 22.88 132.86 26.18 129.18 28.12C128.92 27.58 128.3 26.8 127.82 26.42C131.06 24.88 131.66 22.12 131.96 19.62ZM128.5 23.04L129.62 21.38C131.6 21.98 133.94 23.08 135.28 23.94L134.14 25.78C132.84 24.84 130.46 23.66 128.5 23.04ZM136.52 18.8H138.76C138.76 18.8 138.76 19.4 138.74 19.68C138.54 24.24 138.34 26.12 137.8 26.76C137.42 27.26 137.04 27.44 136.46 27.52C135.98 27.6 135.16 27.6 134.28 27.58C134.26 26.92 134.02 26.02 133.7 25.44C134.38 25.5 134.98 25.5 135.28 25.5C135.54 25.52 135.72 25.46 135.88 25.26C136.2 24.88 136.38 23.36 136.52 19.16V18.8ZM130.7 29.58H132.9V33.96C132.9 34.52 132.94 34.58 133.32 34.58C133.5 34.58 134.16 34.58 134.36 34.58C134.74 34.58 134.82 34.34 134.88 32.48C135.3 32.84 136.24 33.18 136.84 33.34C136.62 35.98 136.04 36.66 134.6 36.66C134.24 36.66 133.32 36.66 132.94 36.66C131.08 36.66 130.7 36 130.7 34V29.58ZM128.66 30.36L130.54 30.86C130.36 32.66 129.98 34.56 129.02 35.74L127.26 34.66C128.08 33.66 128.48 32 128.66 30.36ZM131.14 28.2L132.52 26.82C133.8 27.46 135.38 28.5 136.12 29.34L134.64 30.9C133.94 30.08 132.42 28.94 131.14 28.2ZM135.56 30.68L137.5 29.9C138.54 31.42 139.42 33.46 139.68 34.88L137.58 35.74C137.36 34.34 136.54 32.22 135.56 30.68ZM128.76 18.8H137.54V20.8H128.76V18.8ZM121.5 24.16H127.36V25.96H121.5V24.16ZM121.56 18.64H127.3V20.46H121.56V18.64ZM121.5 26.88H127.36V28.7H121.5V26.88ZM120.58 21.34H127.9V23.24H120.58V21.34ZM122.54 29.66H127.38V35.74H122.54V33.84H125.38V31.56H122.54V29.66ZM121.46 29.66H123.42V36.54H121.46V29.66ZM140.74 29.06C141.34 28.58 141.82 28.12 142.42 27.5C143.36 26.54 144.88 24.48 146.14 23.04C147.54 21.44 148.82 21.3 150.28 22.72C151.66 24.04 153.24 26.1 154.42 27.4C155.7 28.8 157.42 30.58 159.32 32.28L157.24 34.68C155.82 33.32 154.12 31.4 152.84 29.9C151.6 28.44 150.1 26.52 149.18 25.46C148.46 24.7 148.08 24.8 147.5 25.52C146.7 26.54 145.3 28.52 144.44 29.66C143.98 30.3 143.52 31.02 143.16 31.54L140.74 29.06ZM165.3 25.82V33.18H163V28.04H160.76V25.82H165.3ZM165.3 32.24C166.06 33.56 167.48 34.14 169.54 34.22C171.94 34.34 176.68 34.28 179.46 34.06C179.2 34.6 178.82 35.7 178.72 36.4C176.22 36.52 171.96 36.56 169.52 36.44C167.12 36.34 165.5 35.76 164.3 34.22C163.5 35 162.66 35.76 161.66 36.62L160.52 34.24C161.36 33.7 162.34 32.98 163.22 32.24H165.3ZM160.82 19.88L162.66 18.54C163.8 19.42 165.2 20.76 165.82 21.7L163.84 23.22C163.3 22.24 161.96 20.86 160.82 19.88ZM173.48 18.26L176.12 18.74C175.46 20.12 174.72 21.56 174.14 22.5L172.16 21.98C172.66 20.92 173.22 19.4 173.48 18.26ZM169.72 20.88H178.58V22.9H169.72V31.8H167.4V22.72L169.22 20.88H169.72ZM168.72 24.18H178.06V26.12H168.72V24.18ZM168.72 27.42H177.98V29.36H168.72V27.42ZM167.4 30.72H178.94V32.74H167.4V30.72ZM172.32 21.76H174.6V31.62H172.32V21.76ZM169 18.08L171.38 18.78C170.22 21.62 168.3 24.38 166.32 26.1C165.94 25.6 165.06 24.64 164.54 24.2C166.4 22.78 168.06 20.48 169 18.08ZM187.98 18.84C187.88 19.4 187.8 20.14 187.8 21.34C187.78 22.3 187.8 26.04 187.8 27.38L185.4 26.44C185.4 25.08 185.4 22.42 185.4 21.34C185.4 20.08 185.34 19.4 185.18 18.84H187.98ZM194.7 20.68C195.96 21.46 198.06 23.42 198.96 24.5L197.16 26.34C196.06 25 194.18 23.16 193.02 22.34L194.7 20.68ZM181.56 21.24C182.66 21.4 183.86 21.52 184.78 21.52C186.78 21.52 189.08 21.26 191.36 20.62V23.04C189.04 23.56 186.42 23.76 184.96 23.76C184.12 23.76 183.02 23.72 181.7 23.58L181.56 21.24ZM187.36 30.54C187.34 30.96 187.32 31.8 187.32 32.42C187.32 33.28 187.54 33.72 189.92 33.72C190.92 33.72 192.22 33.58 192.98 33.36C194.02 33.04 194.44 32.36 194.44 31.34C194.44 30.56 194.42 29.8 194.3 28.88L197.06 29.7C197.06 30.76 197.08 31.22 197.04 32.06C196.94 33.86 196.38 35 194.08 35.7C193.18 35.98 191.1 36.14 189.74 36.14C185.06 36.14 184.86 34.66 184.86 33.26C184.86 32.56 184.9 31.8 184.9 31.26L187.36 30.54ZM188.38 28.24C188.38 30.58 187.3 32.84 184.56 32.84C183.1 32.84 181.6 31.82 181.6 29.26C181.6 26.88 183.14 25.1 185.3 25.1C187.36 25.1 188.38 26.4 188.38 28.24ZM184.8 30.46C185.74 30.46 186.08 29.48 186.08 28.34C186.08 27.56 185.72 27.1 185.16 27.1C184.36 27.1 183.7 27.9 183.7 29.06C183.7 29.94 184.24 30.46 184.8 30.46Z" fill="white"/>
</svg>
