<svg width="260" height="52" viewBox="0 0 260 52" fill="none" xmlns="http://www.w3.org/2000/svg">
<rect y="-0.00292969" width="260" height="52" fill="#7F5539"/>
<path d="M72.92 20.3171V22.3971H76.36V20.3171H72.92ZM68.26 20.3171V22.3971H71.62V20.3171H68.26ZM63.72 20.3171V22.3971H66.98V20.3171H63.72ZM62.32 19.1371H77.82V23.5971H62.32V19.1371ZM65 28.2971V29.7771H75.12V28.2971H65ZM65 30.7971V32.3171H75.12V30.7971H65ZM65 25.7971V27.2971H75.12V25.7971H65ZM63.5 24.7371H76.68V33.3771H63.5V24.7371ZM71.66 34.3971L72.84 33.5971C75.1 34.2571 77.58 35.1571 79.1 35.8371L77.52 36.6371C76.2 35.9971 73.94 35.1171 71.66 34.3971ZM66.96 33.5571L68.32 34.1771C66.68 35.1771 64.12 36.1171 62.1 36.6571C61.86 36.3571 61.32 35.7971 60.98 35.5371C63.08 35.0971 65.5 34.3571 66.96 33.5571ZM84.46 21.0571C84.36 21.5171 84.3 22.4771 84.28 22.9971C84.26 24.2371 84.28 26.0771 84.42 27.7171C84.76 31.0571 85.72 33.2771 87.16 33.2771C88.18 33.2771 89.12 31.2171 89.64 29.2171L90.9 30.6371C89.68 34.0171 88.48 35.1771 87.12 35.1771C85.22 35.1771 83.42 33.2971 82.86 28.1171C82.68 26.3971 82.64 23.9571 82.64 22.7971C82.64 22.3371 82.64 21.4771 82.52 21.0171L84.46 21.0571ZM94.86 21.5971C96.66 23.9171 98.1 28.1771 98.4 31.5571L96.78 32.1971C96.44 28.5971 95.22 24.4771 93.32 22.1371L94.86 21.5971ZM110.68 18.1971L112.04 18.4771C111.3 21.7571 109.98 24.7971 108.3 26.7771C108.06 26.5571 107.46 26.1171 107.14 25.9171C108.82 24.1171 110 21.2371 110.68 18.1971ZM117.58 21.5571H119C119 21.5571 119 22.1171 118.98 22.3371C118.52 31.4571 118.1 34.5971 117.28 35.5771C116.88 36.1171 116.5 36.2971 115.88 36.3571C115.36 36.4371 114.48 36.4171 113.6 36.3571C113.56 35.9171 113.42 35.2771 113.18 34.8771C114.08 34.9571 114.9 34.9771 115.28 34.9771C115.6 34.9771 115.8 34.8971 116.04 34.6371C116.7 33.8771 117.16 30.6971 117.58 21.9171V21.5571ZM110.54 21.5571H118.18V22.9771H109.9L110.54 21.5571ZM112.56 21.9971L113.7 22.5771C112.84 26.1171 110.94 30.1171 108.66 32.0971C108.36 31.7971 107.88 31.4371 107.48 31.2171C109.82 29.3771 111.74 25.4971 112.56 21.9971ZM115.42 22.1171L116.62 22.6771C115.62 28.0571 113.38 33.5771 110.02 36.2771C109.72 35.9571 109.18 35.5771 108.74 35.3571C112.24 32.8571 114.46 27.4371 115.42 22.1171ZM100.7 29.2971C102.58 28.8171 105.44 27.9771 108.16 27.1571L108.36 28.4771C105.82 29.2771 103.12 30.1171 101.1 30.7571L100.7 29.2971ZM104.44 18.2171H105.84V36.5971H104.44V18.2171ZM101.96 19.3571L103.26 19.5771C102.96 22.2371 102.46 24.9371 101.7 26.7171C101.46 26.5371 100.88 26.1971 100.56 26.0571C101.32 24.3571 101.72 21.8171 101.96 19.3571ZM102.08 22.2971H107.9V23.7571H101.84L102.08 22.2971ZM129.2 19.1971C129.02 19.9771 128.8 21.0771 128.28 22.4171C127.78 23.6371 127.04 24.9771 126.24 26.0171C127.02 25.5571 128.16 25.2771 129.04 25.2771C130.58 25.2771 131.78 26.1971 131.78 27.8171C131.78 28.8571 131.82 31.1571 131.84 32.3971H130.3C130.38 31.3371 130.4 29.2771 130.38 28.2371C130.36 27.0771 129.56 26.5371 128.52 26.5371C127.24 26.5371 125.98 27.1771 125.06 27.9971C124.48 28.5571 123.92 29.2771 123.26 30.0971L121.88 29.0771C124.76 26.3171 126.1 23.9971 126.78 22.2971C127.22 21.1971 127.5 19.9971 127.56 19.0571L129.2 19.1971ZM122.34 21.3571C123.42 21.4971 124.8 21.5571 125.72 21.5571C128.42 21.5571 131.88 21.3971 134.7 20.8971V22.3771C131.9 22.7971 128.18 22.9771 125.64 22.9771C124.78 22.9771 123.46 22.9371 122.34 22.8571V21.3571ZM137.62 26.1771C137.12 26.3371 136.4 26.6171 135.86 26.8171C134.44 27.3771 132.54 28.1371 130.6 29.1371C128.62 30.1771 127.22 31.2571 127.22 32.6371C127.22 34.1971 128.76 34.4371 130.82 34.4371C132.38 34.4371 134.54 34.2571 136.3 33.9371L136.24 35.5571C134.72 35.7371 132.5 35.8971 130.76 35.8971C127.92 35.8971 125.62 35.2771 125.62 32.8571C125.62 30.4171 128.1 28.9171 130.48 27.6971C132.38 26.7171 134 26.0971 135.32 25.4771C135.92 25.1971 136.42 24.9771 136.98 24.6971L137.62 26.1771ZM152.82 18.1971H154.3V23.7971H152.82V18.1971ZM148.24 20.0771H158.98V21.3371H148.24V20.0771ZM148.94 23.1571H158.28V24.4371H148.94V23.1571ZM148.32 25.8171H159.02V29.4171H157.68V27.0371H149.62V29.4171H148.32V25.8171ZM154.56 28.4971H155.94V34.6171C155.94 35.0971 156 35.1771 156.42 35.1771C156.58 35.1771 157.44 35.1771 157.68 35.1771C158.06 35.1771 158.16 34.8571 158.2 32.7171C158.48 32.9771 159.06 33.1771 159.44 33.2971C159.32 35.8171 158.96 36.4771 157.82 36.4771C157.56 36.4771 156.48 36.4771 156.22 36.4771C154.88 36.4771 154.56 36.0571 154.56 34.6171V28.4971ZM150.88 28.5171H152.26V29.7771C152.26 31.7771 151.82 34.6971 147.98 36.6371C147.76 36.3171 147.28 35.8771 146.92 35.6171C150.5 33.8771 150.88 31.3371 150.88 29.7371V28.5171ZM143.92 18.2171L145.24 18.7171C144.48 20.1971 143.54 21.9971 142.76 23.0971L141.74 22.6571C142.46 21.4971 143.4 19.5371 143.92 18.2171ZM146.16 20.4971L147.42 21.0771C146.04 23.2971 144.1 26.1371 142.6 27.8771L141.68 27.3571C143.18 25.5771 145.06 22.5971 146.16 20.4971ZM140.72 22.3771L141.52 21.4171C142.6 22.3971 143.82 23.7371 144.34 24.6571L143.48 25.7771C142.98 24.8171 141.78 23.3971 140.72 22.3771ZM145.38 25.0771L146.46 24.6171C147.3 25.9371 148.12 27.6571 148.4 28.7571L147.22 29.2971C146.96 28.1771 146.18 26.3971 145.38 25.0771ZM140.56 27.0571C142.3 26.9771 144.8 26.8571 147.32 26.7171V27.9771C144.94 28.1371 142.54 28.2771 140.72 28.3971L140.56 27.0571ZM145.9 29.9171L147 29.5771C147.52 30.7371 147.94 32.2371 148.08 33.2171L146.92 33.5771C146.8 32.5971 146.38 31.0771 145.9 29.9171ZM141.76 29.6371L143.02 29.8571C142.76 31.7571 142.3 33.6771 141.66 34.9571C141.42 34.7971 140.82 34.5371 140.52 34.3971C141.16 33.1771 141.54 31.3771 141.76 29.6371ZM143.88 27.6371H145.2V36.5971H143.88V27.6371ZM175.22 19.4171C175.16 19.7371 175.14 20.1371 175.14 20.5971C175.12 21.3371 175.2 24.7171 175.2 25.8371C175.2 30.4171 175.2 33.6971 170.96 36.1771L169.5 35.0571C170.12 34.7971 170.94 34.2971 171.44 33.7971C173.58 31.9371 173.68 29.6571 173.68 25.8171C173.68 24.5371 173.6 21.4371 173.54 20.5971C173.5 20.1571 173.42 19.7171 173.34 19.4171H175.22ZM167.9 23.5571C168.78 23.6971 170.04 23.7771 171.14 23.7771C173.6 23.7771 176.44 23.6171 178.44 23.1571V24.7771C176.5 25.0971 173.7 25.2771 171.16 25.2771C170.18 25.2771 168.78 25.2171 167.9 25.1371V23.5571ZM165.1 19.7171C164.98 20.0771 164.84 20.6371 164.76 21.0171C164.12 23.9171 163.42 28.2971 164.2 31.5771C164.46 30.7171 164.9 29.4971 165.26 28.5171L166.12 29.0371C165.64 30.4171 165.04 32.4571 164.82 33.4571C164.76 33.7371 164.72 34.1171 164.74 34.3571C164.74 34.5571 164.78 34.8171 164.8 35.0371L163.42 35.1971C163.02 33.9571 162.38 31.3571 162.38 28.8571C162.38 25.5971 162.9 22.5371 163.14 20.8571C163.2 20.4171 163.22 19.8771 163.24 19.5171L165.1 19.7171ZM184.76 20.2771C185.2 20.3171 185.76 20.3371 186.16 20.3371C187.22 20.3371 191.96 20.1971 193.02 20.0971C193.62 20.0371 193.9 19.9971 194.12 19.9171L195.04 21.0971C194.68 21.3371 194.28 21.5971 193.9 21.8971C192.92 22.6571 190.2 24.9971 188.64 26.2771C189.56 25.9771 190.52 25.8771 191.42 25.8771C194.74 25.8771 197.12 27.8571 197.12 30.5571C197.12 33.7771 194.46 35.8771 190.22 35.8771C187.5 35.8771 185.84 34.6971 185.84 33.0171C185.84 31.6571 187.08 30.4171 188.92 30.4171C191.58 30.4171 192.92 32.2971 193.06 34.3171L191.62 34.5571C191.5 32.8571 190.52 31.6371 188.92 31.6371C188 31.6371 187.3 32.1971 187.3 32.8971C187.3 33.8771 188.4 34.4571 189.98 34.4571C193.38 34.4571 195.52 33.0571 195.52 30.5571C195.52 28.5771 193.64 27.1171 191.02 27.1171C187.7 27.1171 185.9 28.5171 183.38 31.0971L182.22 29.9371C183.88 28.5771 186.46 26.4171 187.6 25.4371C188.72 24.5171 191.24 22.4171 192.24 21.5171C191.18 21.5771 187.18 21.7371 186.14 21.7971C185.68 21.8371 185.24 21.8571 184.8 21.9171L184.76 20.2771Z" fill="white"/>
</svg>
