<svg width="260" height="53" viewBox="0 0 260 53" fill="none" xmlns="http://www.w3.org/2000/svg">
<rect y="0.800049" width="260" height="52" fill="#7F5539"/>
<path d="M70.14 20.08C70.1 20.54 70.06 21.22 70.04 21.7C69.78 29.86 67.58 33.6 63.64 36.34L62.18 35.16C62.82 34.82 63.62 34.26 64.22 33.7C66.72 31.44 68.36 28.06 68.4 21.74C68.4 21.28 68.36 20.54 68.28 20.08H70.14ZM77.1 24.24C77.04 24.58 77 24.94 76.98 25.2C76.92 27.14 76.66 32.94 75.76 34.86C75.36 35.72 74.72 36.08 73.62 36.08C72.62 36.08 71.46 36.02 70.42 35.94L70.22 34.28C71.3 34.42 72.34 34.52 73.2 34.52C73.76 34.52 74.14 34.34 74.36 33.86C75.12 32.32 75.38 27.4 75.38 25.26H64.84C64.04 25.26 63.24 25.28 62.52 25.34V23.66C63.22 23.72 64.04 23.76 64.82 23.76H74.7C75.24 23.76 75.62 23.72 75.96 23.66L77.1 24.24ZM82.02 27.14C82.64 27.2 83.68 27.26 84.82 27.26C86.28 27.26 94.3 27.26 95.78 27.26C96.78 27.26 97.48 27.18 97.94 27.14V29.1C97.52 29.08 96.68 29.02 95.8 29.02C94.28 29.02 86.3 29.02 84.82 29.02C83.72 29.02 82.66 29.06 82.02 29.1V27.14ZM106.72 34.04C106.72 32.92 106.72 24.08 106.72 22.42C106.72 21.84 106.68 20.96 106.58 20.32H108.54C108.46 20.94 108.4 21.8 108.4 22.42C108.4 25.52 108.42 33.1 108.42 34.04C108.42 34.68 108.46 35.76 108.54 36.42H106.6C106.7 35.78 106.72 34.78 106.72 34.04ZM108.04 25.58C110.68 26.34 114.72 27.88 116.94 28.96L116.24 30.66C113.96 29.44 110.22 28.02 108.04 27.34V25.58ZM129.1 22.3C131.28 22.68 135.34 22.6 137.32 22.3V23.92C135.18 24.16 131.3 24.16 129.12 23.92L129.1 22.3ZM129.88 30.46C129.7 31.18 129.6 31.74 129.6 32.28C129.6 33.2 130.24 34.1 132.98 34.1C134.76 34.1 136.32 33.94 137.92 33.56L137.96 35.24C136.72 35.5 135.04 35.66 132.96 35.66C129.62 35.66 128.12 34.54 128.12 32.66C128.12 32 128.22 31.28 128.44 30.32L129.88 30.46ZM125.3 20.76C125.18 21.1 125.02 21.74 124.94 22.1C124.56 23.96 123.94 27.52 123.94 29.78C123.94 30.74 124 31.58 124.12 32.56C124.46 31.66 124.92 30.46 125.26 29.64L126.1 30.3C125.6 31.72 124.86 33.82 124.68 34.78C124.62 35.06 124.58 35.44 124.58 35.68C124.6 35.88 124.62 36.16 124.64 36.38L123.22 36.48C122.82 35.06 122.48 32.76 122.48 30.04C122.48 27.1 123.14 23.68 123.38 22.02C123.44 21.56 123.5 21.06 123.52 20.62L125.3 20.76ZM144.54 20.22H150.2V21.74H144.54V20.22ZM149.44 20.22H150.98C150.98 23.8 151.42 31.4 159.32 36.08C158.98 36.34 158.38 36.98 158.1 37.34C150.1 32.5 149.44 23.98 149.44 20.22ZM148.88 24.14L150.58 24.46C149.14 30.56 146.5 34.78 142.08 37.38C141.8 37.06 141.12 36.44 140.72 36.16C145.16 33.84 147.66 29.8 148.88 24.14ZM179.48 34.28C178.4 35.36 177.16 35.96 175.8 35.96C174.46 35.96 173.58 35.08 173.58 33.44C173.58 31.2 174.32 27.92 174.32 25.98C174.32 24.82 173.74 24.32 172.72 24.32C170.84 24.32 167.94 26.8 166.06 29.08L166.08 27.1C167.32 25.74 170.64 22.86 173.1 22.86C174.98 22.86 175.9 23.92 175.9 25.54C175.9 27.54 175.14 30.98 175.14 33C175.14 33.68 175.48 34.22 176.2 34.22C177.14 34.22 178.2 33.64 179.22 32.58L179.48 34.28ZM166.04 24.72C165.38 24.82 163.22 25.08 161.74 25.32L161.56 23.66C162 23.68 162.38 23.68 162.88 23.64C163.94 23.58 166.44 23.28 167.36 22.98L167.94 23.66C167.6 24.18 167.06 25.04 166.72 25.6L166.12 28.34C165.2 29.76 163.34 32.46 162.08 34.2L161.08 32.84C162.32 31.28 165.02 27.62 165.8 26.3L165.88 25.26L166.04 24.72ZM165.84 21.42C165.84 20.96 165.86 20.44 165.76 19.94L167.64 20C167.36 21.3 166.76 27.02 166.76 30.54C166.76 32.36 166.76 33.58 166.84 35.36C166.86 35.7 166.92 36.2 166.94 36.58H165.22C165.26 36.2 165.28 35.72 165.28 35.4C165.28 33.46 165.3 32.46 165.32 30.26C165.36 28.5 165.84 22.16 165.84 21.42ZM184.76 21.08C185.2 21.12 185.76 21.14 186.16 21.14C187.22 21.14 191.96 21 193.02 20.9C193.62 20.84 193.9 20.8 194.12 20.72L195.04 21.9C194.68 22.14 194.28 22.4 193.9 22.7C192.92 23.46 190.2 25.8 188.64 27.08C189.56 26.78 190.52 26.68 191.42 26.68C194.74 26.68 197.12 28.66 197.12 31.36C197.12 34.58 194.46 36.68 190.22 36.68C187.5 36.68 185.84 35.5 185.84 33.82C185.84 32.46 187.08 31.22 188.92 31.22C191.58 31.22 192.92 33.1 193.06 35.12L191.62 35.36C191.5 33.66 190.52 32.44 188.92 32.44C188 32.44 187.3 33 187.3 33.7C187.3 34.68 188.4 35.26 189.98 35.26C193.38 35.26 195.52 33.86 195.52 31.36C195.52 29.38 193.64 27.92 191.02 27.92C187.7 27.92 185.9 29.32 183.38 31.9L182.22 30.74C183.88 29.38 186.46 27.22 187.6 26.24C188.72 25.32 191.24 23.22 192.24 22.32C191.18 22.38 187.18 22.54 186.14 22.6C185.68 22.64 185.24 22.66 184.8 22.72L184.76 21.08Z" fill="white"/>
</svg>
