<svg width="49" height="55" viewBox="0 0 49 55" fill="none" xmlns="http://www.w3.org/2000/svg">
<path d="M2.012 44.492C2.492 44.504 2.948 44.516 3.272 44.516C4.148 44.516 9.02 44.516 9.884 44.516C10.184 44.516 10.628 44.516 11.072 44.504C11.048 44.864 11.048 45.296 11.048 45.668C11.048 46.4 11.048 50.816 11.048 51.548C11.048 52.016 11.06 53.168 11.072 53.216H9.404C9.404 53.168 9.44 52.232 9.44 51.572C9.44 50.876 9.44 46.052 9.44 46.052H3.632C3.632 46.052 3.632 50.864 3.632 51.572C3.632 52.148 3.644 53.156 3.644 53.216H2C2 53.156 2.024 52.1 2.024 51.524C2.024 50.804 2.024 46.364 2.024 45.668C2.024 45.32 2.024 44.84 2.012 44.492ZM10.028 51.032V52.556H2.816V51.032H10.028ZM21.848 43.172C22.148 43.616 22.568 44.372 22.796 44.816L21.836 45.236C21.584 44.744 21.212 44.024 20.888 43.568L21.848 43.172ZM23.264 42.632C23.576 43.088 24.02 43.844 24.236 44.264L23.276 44.672C23.024 44.18 22.64 43.472 22.316 43.028L23.264 42.632ZM22.916 45.812C22.784 46.052 22.616 46.376 22.52 46.676C22.196 47.744 21.512 49.352 20.432 50.684C19.292 52.076 17.84 53.18 15.584 54.068L14.168 52.808C16.628 52.064 17.96 51.02 19.004 49.832C19.82 48.896 20.516 47.456 20.708 46.568H16.664L17.216 45.2C17.756 45.2 20.264 45.2 20.648 45.2C21.02 45.2 21.416 45.152 21.692 45.056L22.916 45.812ZM19.004 43.916C18.728 44.336 18.416 44.888 18.272 45.14C17.468 46.592 16.028 48.284 14.312 49.46L12.956 48.464C15.068 47.18 16.112 45.632 16.712 44.6C16.892 44.312 17.144 43.748 17.252 43.34L19.004 43.916ZM25.244 48.344C27.392 47.792 29.144 47.012 30.488 46.184C31.712 45.428 33.08 44.228 33.86 43.28L35.156 44.504C34.064 45.608 32.6 46.736 31.184 47.588C29.828 48.392 27.884 49.292 25.988 49.856L25.244 48.344ZM30.236 46.964L31.94 46.556V51.968C31.94 52.496 31.964 53.24 32.048 53.54H30.14C30.188 53.252 30.236 52.496 30.236 51.968V46.964ZM39.392 43.88C40.22 44.444 41.78 45.692 42.488 46.424L41.264 47.672C40.64 47 39.128 45.692 38.252 45.092L39.392 43.88ZM37.88 51.872C39.764 51.608 41.312 50.996 42.476 50.312C44.528 49.088 46.088 47.264 46.856 45.644L47.78 47.324C46.88 48.956 45.284 50.612 43.352 51.776C42.128 52.508 40.58 53.168 38.9 53.456L37.88 51.872Z" fill="#7F5539"/>
<path d="M21.5 16.5V12L29 18L21.5 24V19.5H8V16.5H21.5ZM10.187 22.5H13.373C14.4201 25.0786 16.3306 27.2133 18.7777 28.5389C21.2248 29.8645 24.0565 30.2987 26.7883 29.7671C29.5202 29.2356 31.9825 27.7713 33.754 25.6249C35.5255 23.4784 36.4962 20.7831 36.5 18C36.5016 15.214 35.5337 12.5143 33.7624 10.3638C31.991 8.21342 29.5267 6.74634 26.792 6.21422C24.0572 5.6821 21.2226 6.11811 18.7742 7.44747C16.3258 8.77682 14.4162 10.9167 13.373 13.5H10.187C12.098 7.4145 17.783 3 24.5 3C32.7845 3 39.5 9.7155 39.5 18C39.5 26.2845 32.7845 33 24.5 33C17.783 33 12.098 28.5855 10.187 22.5Z" fill="#7F5539"/>
</svg>
