<svg width="383" height="141" viewBox="0 0 383 141" fill="none" xmlns="http://www.w3.org/2000/svg">
<g clip-path="url(#clip0_559_1407)" filter="url(#filter0_d_559_1407)">
<rect x="4" width="375" height="133" fill="#EDE0D4"/>
<rect x="49.5" y="85.5" width="317" height="36" fill="white" stroke="#7F5539"/>
<rect x="16.5" y="85.5" width="33" height="36" fill="#D9D9D9" stroke="#7F5539"/>
<g clip-path="url(#clip1_559_1407)">
<path d="M38.625 101.857C38.625 103.428 38.1012 104.879 37.2188 106.057L41.6695 110.394C42.109 110.822 42.109 111.517 41.6695 111.945C41.2301 112.373 40.5164 112.373 40.077 111.945L35.6262 107.608C34.4168 108.47 32.9262 108.977 31.3125 108.977C27.273 108.977 24 105.79 24 101.857C24 97.9237 27.273 94.7368 31.3125 94.7368C35.352 94.7368 38.625 97.9237 38.625 101.857ZM31.3125 106.786C31.9773 106.786 32.6356 106.659 33.2498 106.411C33.864 106.163 34.4221 105.8 34.8922 105.342C35.3623 104.885 35.7352 104.341 35.9896 103.743C36.2441 103.145 36.375 102.504 36.375 101.857C36.375 101.21 36.2441 100.569 35.9896 99.9705C35.7352 99.3725 35.3623 98.8291 34.8922 98.3714C34.4221 97.9136 33.864 97.5505 33.2498 97.3028C32.6356 97.0551 31.9773 96.9276 31.3125 96.9276C30.6477 96.9276 29.9894 97.0551 29.3752 97.3028C28.761 97.5505 28.2029 97.9136 27.7328 98.3714C27.2627 98.8291 26.8898 99.3725 26.6354 99.9705C26.3809 100.569 26.25 101.21 26.25 101.857C26.25 102.504 26.3809 103.145 26.6354 103.743C26.8898 104.341 27.2627 104.885 27.7328 105.342C28.2029 105.8 28.761 106.163 29.3752 106.411C29.9894 106.659 30.6477 106.786 31.3125 106.786Z" fill="#7F5539"/>
</g>
<path d="M342.07 50.14C342.05 50.37 342.03 50.71 342.02 50.95C341.89 55.03 340.79 56.9 338.82 58.27L338.09 57.68C338.41 57.51 338.81 57.23 339.11 56.95C340.36 55.82 341.18 54.13 341.2 50.97C341.2 50.74 341.18 50.37 341.14 50.14H342.07ZM345.55 52.22C345.52 52.39 345.5 52.57 345.49 52.7C345.46 53.67 345.33 56.57 344.88 57.53C344.68 57.96 344.36 58.14 343.81 58.14C343.31 58.14 342.73 58.11 342.21 58.07L342.11 57.24C342.65 57.31 343.17 57.36 343.6 57.36C343.88 57.36 344.07 57.27 344.18 57.03C344.56 56.26 344.69 53.8 344.69 52.73H339.42C339.02 52.73 338.62 52.74 338.26 52.77V51.93C338.61 51.96 339.02 51.98 339.41 51.98H344.35C344.62 51.98 344.81 51.96 344.98 51.93L345.55 52.22ZM348.01 53.67C348.32 53.7 348.84 53.73 349.41 53.73C350.14 53.73 354.15 53.73 354.89 53.73C355.39 53.73 355.74 53.69 355.97 53.67V54.65C355.76 54.64 355.34 54.61 354.9 54.61C354.14 54.61 350.15 54.61 349.41 54.61C348.86 54.61 348.33 54.63 348.01 54.65V53.67ZM360.36 57.12C360.36 56.56 360.36 52.14 360.36 51.31C360.36 51.02 360.34 50.58 360.29 50.26H361.27C361.23 50.57 361.2 51 361.2 51.31C361.2 52.86 361.21 56.65 361.21 57.12C361.21 57.44 361.23 57.98 361.27 58.31H360.3C360.35 57.99 360.36 57.49 360.36 57.12ZM361.02 52.89C362.34 53.27 364.36 54.04 365.47 54.58L365.12 55.43C363.98 54.82 362.11 54.11 361.02 53.77V52.89Z" fill="#7F5539"/>
<path d="M360.826 29.749C360.755 29.6613 360.667 29.5907 360.568 29.5423C360.468 29.4938 360.36 29.4687 360.25 29.4688H345.126L344.668 26.8457C344.605 26.4857 344.423 26.16 344.153 25.9255C343.884 25.691 343.543 25.5626 343.192 25.5625H341.5C341.301 25.5625 341.11 25.6448 340.97 25.7913C340.829 25.9378 340.75 26.1365 340.75 26.3438C340.75 26.551 340.829 26.7497 340.97 26.8962C341.11 27.0427 341.301 27.125 341.5 27.125H343.188L345.584 40.8252C345.654 41.2315 345.827 41.6112 346.083 41.9258C345.729 42.2705 345.473 42.7108 345.345 43.1977C345.216 43.6846 345.219 44.1991 345.354 44.6843C345.489 45.1694 345.75 45.6062 346.108 45.9462C346.467 46.2861 346.909 46.516 347.385 46.6103C347.861 46.7047 348.353 46.6597 348.807 46.4805C349.26 46.3013 349.657 45.9948 349.953 45.595C350.249 45.1952 350.434 44.7178 350.485 44.2156C350.537 43.7134 350.454 43.2061 350.246 42.75H354.504C354.336 43.1159 354.249 43.5164 354.25 43.9219C354.25 44.4627 354.404 44.9913 354.692 45.441C354.981 45.8907 355.391 46.2411 355.87 46.4481C356.35 46.6551 356.878 46.7092 357.387 46.6037C357.896 46.4982 358.364 46.2378 358.731 45.8554C359.098 45.473 359.348 44.9857 359.45 44.4553C359.551 43.9249 359.499 43.3751 359.3 42.8755C359.102 42.3758 358.765 41.9488 358.333 41.6483C357.902 41.3479 357.394 41.1875 356.875 41.1875H347.797C347.622 41.1875 347.451 41.1232 347.317 41.006C347.182 40.8887 347.091 40.7259 347.059 40.5459L346.762 38.8438H357.637C358.164 38.8437 358.674 38.651 359.079 38.2992C359.483 37.9475 359.756 37.459 359.851 36.9189L360.991 30.3896C361.01 30.2768 361.005 30.1609 360.977 30.0502C360.948 29.9395 360.897 29.8367 360.826 29.749ZM349 43.9219C349 44.1537 348.934 44.3802 348.81 44.5729C348.687 44.7656 348.511 44.9158 348.306 45.0045C348.1 45.0932 347.874 45.1164 347.656 45.0712C347.437 45.026 347.237 44.9144 347.08 44.7505C346.922 44.5866 346.815 44.3778 346.772 44.1505C346.728 43.9232 346.75 43.6876 346.836 43.4734C346.921 43.2593 347.065 43.0763 347.25 42.9475C347.435 42.8187 347.652 42.75 347.875 42.75C348.173 42.75 348.46 42.8735 348.67 43.0932C348.881 43.313 349 43.6111 349 43.9219ZM358 43.9219C358 44.1537 357.934 44.3802 357.81 44.5729C357.687 44.7656 357.511 44.9158 357.306 45.0045C357.1 45.0932 356.874 45.1164 356.656 45.0712C356.437 45.026 356.237 44.9144 356.08 44.7505C355.922 44.5866 355.815 44.3778 355.772 44.1505C355.728 43.9232 355.75 43.6876 355.836 43.4734C355.921 43.2593 356.065 43.0763 356.25 42.9475C356.435 42.8187 356.652 42.75 356.875 42.75C357.173 42.75 357.46 42.8735 357.67 43.0932C357.881 43.313 358 43.6111 358 43.9219ZM358.375 36.6396C358.344 36.8202 358.252 36.9834 358.117 37.1007C357.981 37.218 357.81 37.2819 357.634 37.2812H346.489L345.399 31.0312H359.351L358.375 36.6396Z" fill="#7F5539"/>
<path d="M286.46 51.15C286.85 51.17 287.11 51.17 287.35 51.17C287.88 51.17 292.23 51.17 292.72 51.17C292.93 51.17 293.29 51.17 293.6 51.16C293.58 51.4 293.58 51.68 293.58 51.93C293.58 52.4 293.58 56.48 293.58 56.86C293.58 57.18 293.59 57.96 293.6 58.07H292.73C292.74 57.96 292.75 57.39 292.75 56.97C292.75 56.6 292.75 51.96 292.75 51.96H287.29C287.29 51.96 287.29 56.56 287.29 56.97C287.29 57.3 287.3 57.94 287.3 58.07H286.45C286.45 57.94 286.47 57.21 286.47 56.86C286.47 56.45 286.47 52.32 286.47 51.93C286.47 51.7 286.47 51.4 286.46 51.15ZM293.08 56.72V57.5H286.89V56.72H293.08ZM302.65 50C302.9 50.36 303.26 50.97 303.46 51.37L302.92 51.62C302.72 51.21 302.38 50.61 302.11 50.23L302.65 50ZM303.74 49.6C304.01 49.97 304.39 50.59 304.58 50.96L304.04 51.2C303.82 50.77 303.5 50.2 303.22 49.83L303.74 49.6ZM303.31 51.99C303.23 52.14 303.13 52.37 303.08 52.53C302.81 53.53 302.19 54.89 301.31 55.97C300.4 57.08 299.2 58 297.32 58.69L296.6 58.04C298.44 57.5 299.68 56.59 300.59 55.53C301.37 54.61 301.98 53.32 302.19 52.41H298.48L298.8 51.69C299.21 51.69 301.68 51.69 301.99 51.69C302.26 51.69 302.48 51.66 302.65 51.59L303.31 51.99ZM299.96 50.48C299.8 50.74 299.62 51.08 299.52 51.27C298.93 52.37 297.88 53.8 296.28 54.87L295.58 54.35C297.31 53.32 298.29 51.87 298.73 50.97C298.83 50.8 298.98 50.43 299.04 50.18L299.96 50.48ZM305.86 54.39C307.59 53.93 309.11 53.22 310.22 52.53C311.27 51.87 312.27 51.01 312.96 50.17L313.63 50.8C312.77 51.69 311.72 52.53 310.55 53.26C309.45 53.94 307.86 54.67 306.25 55.17L305.86 54.39ZM310.06 52.94L310.92 52.68V57.25C310.92 57.62 310.94 58.12 310.99 58.31H310C310.03 58.12 310.06 57.62 310.06 57.25V52.94ZM317.27 50.68C317.97 51.15 319.26 52.19 319.81 52.74L319.19 53.38C318.68 52.86 317.44 51.78 316.69 51.29L317.27 50.68ZM316.41 57.38C318.15 57.12 319.45 56.51 320.4 55.92C321.95 54.95 323.16 53.47 323.74 52.23L324.22 53.09C323.54 54.33 322.38 55.69 320.87 56.64C319.86 57.27 318.6 57.89 316.93 58.2L316.41 57.38Z" fill="#7F5539"/>
<path d="M303 35.4583V32.3333L308 36.5L303 40.6666V37.5416H294V35.4583H303ZM295.458 39.625H297.582C298.28 41.4157 299.554 42.8981 301.185 43.8187C302.817 44.7392 304.704 45.0407 306.526 44.6716C308.347 44.3025 309.988 43.2856 311.169 41.795C312.35 40.3044 312.997 38.4327 313 36.5C313.001 34.5653 312.356 32.6904 311.175 31.1971C309.994 29.7037 308.351 28.6849 306.528 28.3154C304.705 27.9459 302.815 28.2487 301.183 29.1718C299.551 30.095 298.277 31.581 297.582 33.375H295.458C296.732 29.1489 300.522 26.0833 305 26.0833C310.523 26.0833 315 30.7469 315 36.5C315 42.2531 310.523 46.9166 305 46.9166C300.522 46.9166 296.732 43.851 295.458 39.625Z" fill="#7F5539"/>
<g clip-path="url(#clip2_559_1407)">
<path d="M202.569 44.0469C201.434 44.0469 200.601 43.7698 200.069 43.2154C199.536 42.6611 199.27 41.7422 199.27 40.4585C199.27 39.4374 199.446 38.3385 199.797 37.1618C200.159 35.9852 200.731 34.9786 201.515 34.1423C202.308 33.2963 203.312 32.8732 204.527 32.8732C205.28 32.8732 205.888 33.0337 206.35 33.3546C206.812 33.6755 207.043 34.1666 207.043 34.8279C207.043 35.2461 206.957 35.5767 206.787 35.8198C206.616 36.0532 206.35 36.1699 205.988 36.1699C205.627 36.1699 205.341 36.0435 205.13 35.7907C205.31 35.7031 205.471 35.5281 205.612 35.2655C205.752 35.003 205.823 34.7307 205.823 34.4486C205.823 34.1861 205.747 33.9721 205.597 33.8068C205.456 33.6415 205.225 33.5588 204.904 33.5588C204.371 33.5588 203.864 33.9138 203.382 34.6237C202.9 35.3239 202.509 36.2088 202.207 37.2785C201.916 38.3483 201.771 39.3791 201.771 40.371C201.771 41.11 201.901 41.6741 202.162 42.0631C202.423 42.4521 202.895 42.6465 203.578 42.6465C204.171 42.6465 204.718 42.5201 205.22 42.2673C205.722 42.0145 206.154 41.6546 206.515 41.1878L206.862 41.3337C206.611 41.9464 206.239 42.4569 205.747 42.8654C205.255 43.2738 204.728 43.5753 204.166 43.7698C203.603 43.9545 203.071 44.0469 202.569 44.0469Z" fill="#7F5539"/>
<path d="M208.128 43.8719C207.797 43.8719 207.516 43.76 207.285 43.5364C207.054 43.3127 206.938 43.0404 206.938 42.7195C206.938 42.3986 207.054 42.1263 207.285 41.9026C207.516 41.6692 207.797 41.5526 208.128 41.5526C208.46 41.5526 208.741 41.6692 208.972 41.9026C209.213 42.1263 209.333 42.3986 209.333 42.7195C209.333 43.0404 209.213 43.3127 208.972 43.5364C208.741 43.76 208.46 43.8719 208.128 43.8719Z" fill="#7F5539"/>
<path d="M194.901 56.1265C193.766 56.1265 192.933 55.8493 192.4 55.295C191.868 54.7407 191.602 53.8217 191.602 52.5381C191.602 51.517 191.778 50.4181 192.129 49.2414C192.491 48.0647 193.063 47.0582 193.846 46.2219C194.64 45.3759 195.644 44.9528 196.859 44.9528C197.612 44.9528 198.22 45.1133 198.682 45.4342C199.144 45.7551 199.375 46.2462 199.375 46.9075C199.375 47.3257 199.289 47.6562 199.118 47.8994C198.948 48.1328 198.682 48.2495 198.32 48.2495C197.959 48.2495 197.672 48.123 197.462 47.8702C197.642 47.7827 197.803 47.6076 197.944 47.3451C198.084 47.0825 198.154 46.8103 198.154 46.5282C198.154 46.2657 198.079 46.0517 197.929 45.8864C197.788 45.7211 197.557 45.6384 197.236 45.6384C196.703 45.6384 196.196 45.9934 195.714 46.7032C195.232 47.4035 194.841 48.2884 194.539 49.3581C194.248 50.4278 194.102 51.4586 194.102 52.4505C194.102 53.1896 194.233 53.7536 194.494 54.1427C194.755 54.5316 195.227 54.7261 195.91 54.7261C196.503 54.7261 197.05 54.5997 197.552 54.3468C198.054 54.094 198.486 53.7342 198.847 53.2674L199.194 53.4133C198.943 54.0259 198.571 54.5365 198.079 54.9449C197.587 55.3534 197.06 55.6548 196.498 55.8493C195.935 56.0341 195.403 56.1265 194.901 56.1265Z" fill="#7F5539"/>
<path d="M200.46 55.9514C200.129 55.9514 199.848 55.8396 199.617 55.6159C199.386 55.3922 199.27 55.12 199.27 54.7991C199.27 54.4781 199.386 54.2059 199.617 53.9822C199.848 53.7488 200.129 53.6321 200.46 53.6321C200.792 53.6321 201.073 53.7488 201.304 53.9822C201.545 54.2059 201.665 54.4781 201.665 54.7991C201.665 55.12 201.545 55.3922 201.304 55.6159C201.073 55.8396 200.792 55.9514 200.46 55.9514Z" fill="#7F5539"/>
<path d="M187.98 68.9471C187.377 68.9471 186.765 68.6894 186.142 68.174L186.022 68.7575H183.853L185.901 59.4801L188.13 59.1884L186.323 67.3717C186.604 67.5662 186.89 67.6635 187.182 67.6635C187.754 67.6635 188.256 67.3425 188.688 66.7007C189.13 66.0589 189.471 65.242 189.712 64.2501C189.953 63.2582 190.074 62.2565 190.074 61.2451C190.074 60.2921 189.878 59.5968 189.486 59.1592C189.105 58.7119 188.567 58.4882 187.874 58.4882C187.121 58.4882 186.443 58.634 185.841 58.9258C185.248 59.2078 184.781 59.6162 184.44 60.1511C184.099 60.686 183.928 61.3132 183.928 62.0328C183.928 62.3927 183.963 62.6455 184.033 62.7914C184.104 62.9275 184.139 63.0053 184.139 63.0247C183.617 63.0247 183.215 62.9178 182.934 62.7038C182.663 62.4899 182.527 62.1447 182.527 61.6682C182.527 61.0069 182.783 60.3797 183.295 59.7865C183.807 59.1932 184.49 58.7167 185.344 58.3569C186.207 57.9971 187.136 57.8172 188.13 57.8172C189.506 57.8172 190.52 58.2111 191.173 58.9988C191.826 59.7865 192.152 60.7929 192.152 62.0183C192.152 63.1269 191.956 64.2209 191.565 65.3004C191.183 66.37 190.671 67.2453 190.028 67.926C189.386 68.6067 188.703 68.9471 187.98 68.9471Z" fill="#7F5539"/>
<path d="M194.624 68.8158C193.881 68.8158 193.293 68.631 192.862 68.2615C192.43 67.8919 192.214 67.3085 192.214 66.511C192.214 65.8498 192.354 65.1155 192.636 64.3084C192.917 63.5013 193.369 62.806 193.991 62.2225C194.614 61.6293 195.397 61.3326 196.341 61.3326C197.627 61.3326 198.269 62.1106 198.269 63.6666V63.6811C198.299 63.6909 198.355 63.6957 198.435 63.6957C198.766 63.6957 199.148 63.6131 199.58 63.4478C200.011 63.2727 200.403 63.0637 200.755 62.8205L200.89 63.2144C200.599 63.5159 200.217 63.7736 199.745 63.9875C199.283 64.1917 198.776 64.3376 198.224 64.4251C198.144 65.31 197.938 66.0832 197.606 66.7445C197.275 67.4057 196.848 67.9163 196.326 68.2761C195.804 68.6359 195.236 68.8158 194.624 68.8158ZM195.226 67.503C195.467 67.503 195.708 67.3717 195.95 67.1091C196.19 66.8368 196.401 66.4722 196.582 66.0151C196.763 65.5483 196.893 65.0329 196.974 64.4688C196.703 64.4105 196.567 64.2063 196.567 63.8562C196.567 63.4575 196.723 63.1949 197.034 63.0685C197.014 62.7476 196.964 62.5288 196.883 62.4121C196.803 62.2857 196.662 62.2225 196.462 62.2225C196.13 62.2225 195.809 62.4559 195.498 62.9226C195.186 63.3894 194.935 63.9486 194.744 64.6001C194.554 65.2517 194.458 65.8255 194.458 66.3214C194.458 66.7882 194.513 67.1042 194.624 67.2696C194.734 67.4252 194.935 67.503 195.226 67.503Z" fill="#7F5539"/>
<path d="M204.482 68.8451C203.869 68.8451 203.417 68.6894 203.126 68.3783C202.845 68.0574 202.704 67.6635 202.704 67.1967C202.704 66.9925 202.73 66.7639 202.78 66.5111C202.83 66.2485 202.88 65.9957 202.93 65.7526C202.991 65.5094 203.031 65.3539 203.051 65.2858C203.131 64.9454 203.207 64.6099 203.277 64.2793C203.347 63.9486 203.382 63.6812 203.382 63.477C203.382 62.981 203.202 62.7331 202.84 62.7331C202.579 62.7331 202.348 62.8595 202.147 63.1123C201.946 63.3554 201.786 63.6763 201.665 64.0751L200.641 68.7575H198.472L200.068 61.464H202.238L202.072 62.2225C202.574 61.6779 203.161 61.4056 203.834 61.4056C204.346 61.4056 204.753 61.5418 205.054 61.8141C205.356 62.0864 205.506 62.4997 205.506 63.054C205.506 63.336 205.471 63.6521 205.401 64.0021C205.33 64.3425 205.23 64.7607 205.1 65.2566C205.019 65.5581 204.944 65.8547 204.874 66.1464C204.813 66.4284 204.783 66.6521 204.783 66.8174C204.783 67.0119 204.828 67.1626 204.919 67.2697C205.009 67.3766 205.165 67.4301 205.386 67.4301C205.687 67.4301 205.928 67.328 206.109 67.1238C206.29 66.9098 206.47 66.584 206.651 66.1464H207.284C206.912 67.2161 206.48 67.9358 205.988 68.3053C205.506 68.6651 205.004 68.8451 204.482 68.8451Z" fill="#7F5539"/>
<path d="M208.141 68.845C207.658 68.845 207.267 68.6991 206.966 68.4074C206.674 68.1156 206.529 67.678 206.529 67.0945C206.529 66.8514 206.569 66.5354 206.649 66.1464L207.674 61.4639H209.843L208.758 66.4235C208.728 66.5694 208.713 66.7055 208.713 66.832C208.713 67.2307 208.864 67.43 209.165 67.43C209.446 67.43 209.687 67.3182 209.888 67.0945C210.089 66.8611 210.249 66.5451 210.37 66.1464L211.394 61.4639H213.563L212.479 66.4235C212.439 66.5694 212.418 66.725 212.418 66.8903C212.418 67.0848 212.464 67.2258 212.554 67.3133C212.654 67.3911 212.815 67.43 213.036 67.43C213.317 67.43 213.558 67.3133 213.759 67.0799C213.97 66.8465 214.136 66.5354 214.256 66.1464H214.889C214.517 67.1967 214.055 67.9114 213.503 68.2907C212.961 68.6602 212.413 68.845 211.861 68.845C211.429 68.845 211.083 68.7283 210.822 68.4949C210.571 68.2615 210.42 67.9163 210.37 67.4592C210.028 67.9941 209.667 68.3587 209.285 68.5532C208.914 68.7477 208.532 68.845 208.141 68.845Z" fill="#7F5539"/>
<path d="M215.746 68.845C215.264 68.845 214.872 68.6991 214.571 68.4074C214.279 68.1157 214.134 67.678 214.134 67.0945C214.134 66.8514 214.174 66.5354 214.254 66.1464L215.158 62.0474H214.661L214.782 61.4639H215.279L215.731 59.4509L217.96 59.1592L217.447 61.4639H218.351L218.231 62.0474H217.327L216.363 66.4235C216.323 66.5694 216.303 66.725 216.303 66.8903C216.303 67.0848 216.348 67.2258 216.439 67.3133C216.539 67.3912 216.7 67.43 216.92 67.43C217.212 67.43 217.483 67.3134 217.734 67.0799C217.985 66.8368 218.166 66.5257 218.276 66.1464H218.909C218.538 67.1967 218.06 67.9114 217.478 68.2907C216.896 68.6602 216.318 68.845 215.746 68.845Z" fill="#7F5539"/>
<path d="M219.987 68.845C219.505 68.845 219.099 68.7575 218.767 68.5825C218.436 68.3977 218.19 68.1643 218.029 67.8823C217.869 67.5905 217.788 67.2891 217.788 66.9779C217.788 66.657 217.869 66.3798 218.029 66.1464C218.18 65.9033 218.366 65.7283 218.586 65.6213C218.978 64.9405 219.32 64.255 219.611 63.5645C219.902 62.8643 220.178 62.1107 220.439 61.3035L222.669 61.0118C222.719 62.2565 222.804 63.6034 222.925 65.0524C222.975 65.6359 223 66.0589 223 66.3215C223 66.9147 222.845 67.4009 222.533 67.7802C222.222 68.1594 221.835 68.4317 221.373 68.597C220.921 68.7624 220.46 68.845 219.987 68.845ZM219.505 67.6926C219.877 67.6926 220.188 67.5857 220.439 67.3717C220.69 67.1578 220.816 66.8126 220.816 66.3361C220.816 66.0443 220.786 65.6359 220.725 65.1108C220.625 64.0021 220.56 63.2582 220.53 62.8789C220.289 63.6472 219.882 64.5662 219.31 65.6358C219.54 65.7526 219.656 65.9227 219.656 66.1464C219.656 66.3312 219.591 66.4965 219.46 66.6424C219.34 66.7883 219.184 66.8612 218.993 66.8612C218.782 66.8612 218.647 66.798 218.586 66.6716C218.586 67.0216 218.657 67.2793 218.797 67.4447C218.948 67.61 219.184 67.6926 219.505 67.6926Z" fill="#7F5539"/>
<path d="M196.886 34.3009C194.079 32.687 190.721 32.2133 187.552 32.984C184.382 33.7548 181.66 35.7067 179.984 38.4106C178.309 41.1145 177.817 44.3487 178.617 47.4018C179.417 50.4549 181.444 53.0767 184.251 54.6907L190.569 44.4958L196.886 34.3009Z" fill="#E8C2CA"/>
<path d="M180.707 60.2602C178.541 59.0266 176.649 57.3922 175.141 55.4513C173.634 53.5103 172.54 51.3011 171.922 48.951C171.305 46.601 171.177 44.1565 171.545 41.7584C171.913 39.3604 172.77 37.0561 174.066 34.9786C175.363 32.901 177.074 31.0911 179.1 29.6533C181.126 28.2154 183.428 27.178 185.872 26.6008C188.317 26.0237 190.856 25.9181 193.343 26.2903C195.829 26.6624 198.215 27.505 200.363 28.7693L197.036 34.0106C195.607 33.169 194.019 32.6082 192.363 32.3604C190.708 32.1127 189.018 32.183 187.391 32.5672C185.764 32.9514 184.232 33.6419 182.883 34.599C181.534 35.5561 180.396 36.7608 179.532 38.1437C178.669 39.5267 178.099 41.0604 177.854 42.6567C177.609 44.2529 177.694 45.88 178.105 47.4443C178.516 49.0086 179.244 50.4791 180.248 51.7711C181.252 53.0631 182.511 54.151 183.953 54.9722L180.707 60.2602Z" fill="#D1B3C4"/>
<path d="M175.455 68.9635C168.733 65.0972 163.879 58.8201 161.957 51.51C160.035 44.1999 161.202 36.4539 165.203 29.972C169.204 23.49 175.711 18.8016 183.297 16.9356C190.882 15.0697 198.926 16.1786 205.664 20.019L200.631 28.2114C196.146 25.655 190.791 24.9169 185.742 26.159C180.693 27.401 176.361 30.5218 173.698 34.8365C171.035 39.1511 170.258 44.3071 171.538 49.173C172.817 54.0389 176.048 58.2172 180.522 60.7909L175.455 68.9635Z" fill="#B392AC"/>
</g>
<g clip-path="url(#clip3_559_1407)">
<path d="M16 47.2955H41" stroke="#7F5539" stroke-width="3"/>
<path d="M16 35.9318H41" stroke="#7F5539" stroke-width="3"/>
<path d="M16 25.7045H41" stroke="#7F5539" stroke-width="3"/>
</g>
</g>
<defs>
<filter id="filter0_d_559_1407" x="0" y="0" width="383" height="141" filterUnits="userSpaceOnUse" color-interpolation-filters="sRGB">
<feFlood flood-opacity="0" result="BackgroundImageFix"/>
<feColorMatrix in="SourceAlpha" type="matrix" values="0 0 0 0 0 0 0 0 0 0 0 0 0 0 0 0 0 0 127 0" result="hardAlpha"/>
<feOffset dy="4"/>
<feGaussianBlur stdDeviation="2"/>
<feComposite in2="hardAlpha" operator="out"/>
<feColorMatrix type="matrix" values="0 0 0 0 0 0 0 0 0 0 0 0 0 0 0 0 0 0 0.25 0"/>
<feBlend mode="normal" in2="BackgroundImageFix" result="effect1_dropShadow_559_1407"/>
<feBlend mode="normal" in="SourceGraphic" in2="effect1_dropShadow_559_1407" result="shape"/>
</filter>
<clipPath id="clip0_559_1407">
<rect width="375" height="133" fill="white" transform="translate(4)"/>
</clipPath>
<clipPath id="clip1_559_1407">
<rect width="18" height="17.5263" fill="white" transform="translate(24 94.7368)"/>
</clipPath>
<clipPath id="clip2_559_1407">
<rect width="62" height="53" fill="white" transform="translate(161 16)"/>
</clipPath>
<clipPath id="clip3_559_1407">
<rect width="25" height="25" fill="white" transform="translate(16 24)"/>
</clipPath>
</defs>
</svg>
