<svg width="369" height="48" viewBox="0 0 369 48" fill="none" xmlns="http://www.w3.org/2000/svg">
<g filter="url(#filter0_d_308_284)">
<rect x="5" y="0.5" width="39" height="39" fill="#D9D9D9" stroke="#7F5539"/>
<path d="M30.125 19.5746C30.125 21.188 29.6012 22.6785 28.7188 23.8877L33.1695 28.3413C33.609 28.7807 33.609 29.4943 33.1695 29.9336C32.7301 30.373 32.0164 30.373 31.577 29.9336L27.1262 25.48C25.9168 26.3658 24.4262 26.886 22.8125 26.886C18.773 26.886 15.5 23.6135 15.5 19.5746C15.5 15.5358 18.773 12.2632 22.8125 12.2632C26.852 12.2632 30.125 15.5358 30.125 19.5746ZM22.8125 24.6364C23.4773 24.6364 24.1356 24.5054 24.7498 24.2511C25.364 23.9967 25.9221 23.6238 26.3922 23.1538C26.8623 22.6838 27.2352 22.1258 27.4896 21.5117C27.7441 20.8975 27.875 20.2393 27.875 19.5746C27.875 18.9099 27.7441 18.2517 27.4896 17.6376C27.2352 17.0234 26.8623 16.4654 26.3922 15.9954C25.9221 15.5254 25.364 15.1525 24.7498 14.8982C24.1356 14.6438 23.4773 14.5129 22.8125 14.5129C22.1477 14.5129 21.4894 14.6438 20.8752 14.8982C20.261 15.1525 19.7029 15.5254 19.2328 15.9954C18.7627 16.4654 18.3898 17.0234 18.1354 17.6376C17.8809 18.2517 17.75 18.9099 17.75 19.5746C17.75 20.2393 17.8809 20.8975 18.1354 21.5117C18.3898 22.1258 18.7627 22.6838 19.2328 23.1538C19.7029 23.6238 20.261 23.9967 20.8752 24.2511C21.4894 24.5054 22.1477 24.6364 22.8125 24.6364Z" fill="#7F5539"/>
<rect x="45" y="0.5" width="319" height="39" fill="white" stroke="#7F5539"/>
</g>
<defs>
<filter id="filter0_d_308_284" x="0.5" y="0" width="368" height="48" filterUnits="userSpaceOnUse" color-interpolation-filters="sRGB">
<feFlood flood-opacity="0" result="BackgroundImageFix"/>
<feColorMatrix in="SourceAlpha" type="matrix" values="0 0 0 0 0 0 0 0 0 0 0 0 0 0 0 0 0 0 127 0" result="hardAlpha"/>
<feOffset dy="4"/>
<feGaussianBlur stdDeviation="2"/>
<feComposite in2="hardAlpha" operator="out"/>
<feColorMatrix type="matrix" values="0 0 0 0 0 0 0 0 0 0 0 0 0 0 0 0 0 0 0.25 0"/>
<feBlend mode="normal" in2="BackgroundImageFix" result="effect1_dropShadow_308_284"/>
<feBlend mode="normal" in="SourceGraphic" in2="effect1_dropShadow_308_284" result="shape"/>
</filter>
</defs>
</svg>
