<svg width="160" height="36" viewBox="0 0 160 36" fill="none" xmlns="http://www.w3.org/2000/svg">
<rect width="160" height="36" fill="#CCCCCC"/>
<path d="M50.82 22.42H69.2V23.68H50.82V22.42ZM51.54 11.48H68.48V12.74H51.54V11.48ZM54.06 18.6H65.94V19.8H54.06V18.6ZM65.44 14.82H66.76V26.86C66.76 27.74 66.54 28.16 65.92 28.36C65.3 28.58 64.18 28.6 62.44 28.6C62.36 28.24 62.16 27.66 61.96 27.3C63.32 27.36 64.6 27.34 64.94 27.32C65.32 27.3 65.44 27.2 65.44 26.86V14.82ZM53.2 14.82H65.98V16.06H54.52V28.62H53.2V14.82ZM59.24 11.88H60.58V22.9H59.24V11.88ZM78.68 17.12H89.4V18.44H78.68V17.12ZM83.46 10.3H84.8V28.56H83.46V10.3ZM71.74 16.28H77.94V17.36H71.74V16.28ZM71.84 10.96H77.94V12.06H71.84V10.96ZM71.74 18.94H77.94V20.04H71.74V18.94ZM70.78 13.56H78.7V14.7H70.78V13.56ZM72.36 21.62H77.88V27.42H72.36V26.3H76.66V22.76H72.36V21.62ZM71.7 21.62H72.92V28.36H71.7V21.62ZM91.14 24.04H108.94V25.16H91.14V24.04ZM94.92 17.82V19.08H105.4V17.82H94.92ZM94.92 19.98V21.26H105.4V19.98H94.92ZM94.92 15.7V16.92H105.4V15.7H94.92ZM93.56 14.76H106.78V22.18H93.56V14.76ZM102.92 21.94H104.28V28.54H102.92V21.94ZM93.24 11.76H99.74V12.88H93.24V11.76ZM100.92 11.76H108.74V12.88H100.92V11.76ZM93.68 10.16L94.94 10.5C94.18 12.24 93 13.96 91.84 15.08C91.6 14.88 91.06 14.5 90.74 14.32C91.94 13.3 93.04 11.74 93.68 10.16ZM101.5 10.16L102.78 10.46C102.16 12.16 101.02 13.76 99.88 14.8C99.6 14.6 99.04 14.26 98.7 14.12C99.9 13.14 100.94 11.7 101.5 10.16ZM94.6 12.66L95.74 12.28C96.22 12.9 96.76 13.78 96.98 14.36L95.82 14.78C95.58 14.22 95.1 13.3 94.6 12.66ZM102.94 12.6L104.04 12.1C104.68 12.72 105.44 13.64 105.78 14.26L104.64 14.8C104.34 14.18 103.6 13.24 102.94 12.6ZM96.3 21.92H97.66V23.5C97.66 25.18 97 27.22 92.32 28.6C92.12 28.3 91.76 27.84 91.48 27.6C95.84 26.48 96.3 24.7 96.3 23.46V21.92Z" fill="black"/>
</svg>
