<svg width="300" height="69" viewBox="0 0 300 69" fill="none" xmlns="http://www.w3.org/2000/svg">
<rect y="0.359863" width="300" height="68" fill="#333333"/>
<path d="M247 45.3599L256.5 35.8599L247 26.3599V45.3599Z" fill="white"/>
<path d="M51.7 28.2999H47.42L47.56 28.8599H52.22L52.24 30.0599C51.74 36.6199 48 42.4999 43.62 44.9199L43.76 45.1399C48.38 43.3199 51.86 39.8599 53.36 35.8199C54.34 39.9199 57.38 43.6199 60.04 45.1599C60.48 43.8399 61.22 43.0999 62.4 42.9599L62.46 42.7399C56.64 40.3199 53.46 36.2799 52.86 30.1599V29.4799C54.08 29.3599 55.04 29.0999 55.42 28.6399L52.72 26.6799L51.7 28.2999ZM66.58 31.5799L66.76 32.1399H81.44V31.5799H66.58ZM80.1 31.5799C79.92 37.2999 79.56 41.3599 78.8 41.9999C78.58 42.1999 78.38 42.2599 78 42.2599C77.42 42.2599 75.64 42.1399 74.42 42.0599V42.3199C75.54 42.5199 76.54 42.8799 76.96 43.2599C77.38 43.6399 77.52 44.2399 77.5 44.9799C79.04 44.9799 79.92 44.6799 80.66 43.9599C81.84 42.8399 82.28 39.0399 82.5 32.5599C82.98 32.4999 83.24 32.3599 83.4 32.1799L81.2 30.2399L79.88 31.5799H80.1ZM72.78 26.4399C72.76 33.7999 73.16 39.9599 65.72 44.8399L65.92 45.1399C75.46 41.0999 75.24 34.6799 75.38 27.2999C75.88 27.2399 76.06 27.0599 76.12 26.7399L72.78 26.4399ZM96.84 33.2199L96.64 33.3599C97.96 34.7799 99.52 36.9199 99.98 38.7799C102.3 40.4399 103.92 35.4999 96.84 33.2199ZM102.84 30.1999V42.0399C102.84 42.3399 102.72 42.4999 102.34 42.4999C101.68 42.4999 98.96 42.3199 98.96 42.3199V42.5799C100.24 42.7999 100.78 43.0799 101.2 43.4599C101.62 43.8199 101.76 44.3799 101.88 45.1599C104.82 44.8799 105.22 43.9199 105.22 42.2999V31.1399C105.62 31.0799 105.9 30.8999 106.04 30.7399L103.74 28.9399L102.64 30.1999H102.84ZM88.94 30.1999V45.1199H89.32C90.32 45.1199 91.3 44.5399 91.3 44.2599V30.7599H103.84V30.1999H91.48L88.94 29.1599V30.1999ZM95.7 26.3999C95.64 32.0199 95.58 36.0799 91.48 39.2399L91.68 39.5399C97.78 36.9399 97.92 32.8399 98.12 27.1999C98.6 27.1399 98.8 26.9199 98.84 26.6399L95.7 26.3999ZM114.6 43.0799V43.6399H123.38V43.0799H114.6ZM121.96 38.6999V45.0199H122.36C123.1 45.0199 124.26 44.5799 124.28 44.4199V39.5599C124.62 39.4799 124.84 39.3399 124.94 39.1999L122.8 37.5799L121.78 38.6999H121.96ZM113.7 38.6999V45.1799H114.04C114.98 45.1799 116 44.6599 116 44.4599V39.2599H123.62V38.6999H116.12L113.7 37.7399V38.6999ZM115.4 30.1599C114.7 31.6799 113.16 33.8399 111.5 35.1399L111.68 35.3799C113.96 34.5599 116.18 33.0199 117.36 31.6199C117.84 31.6599 118 31.5199 118.1 31.3199L115.4 30.1599ZM112.2 28.9199V29.4799H126.34V28.9199H112.2ZM117.74 26.3599V29.2799H120.16V27.1799C120.7 27.0799 120.86 26.8799 120.9 26.5999L117.74 26.3599ZM112.18 27.5799C112.2 28.7999 111.38 29.9599 110.68 30.3999C110.06 30.7399 109.68 31.3199 109.94 32.0199C110.26 32.7599 111.28 32.8799 111.88 32.3999C112.78 31.7199 113.34 29.9999 112.46 27.5799H112.18ZM125.44 28.9199C125.28 29.6999 124.84 30.9999 124.52 31.7999L124.7 31.9199C125.68 31.4399 126.96 30.5999 127.7 29.9399C128.1 29.8999 128.32 29.8599 128.48 29.6999L126.4 27.7399L125.22 28.9199H125.44ZM120.04 30.5999L119.88 30.7799C121.34 31.6599 123.14 33.2799 123.94 34.6999C126.4 35.6599 127.14 30.8599 120.04 30.5999ZM119.68 33.9999C120.96 36.7199 123.66 38.9199 126.76 40.1199C126.9 39.2599 127.52 38.2799 128.5 37.9799L128.52 37.6599C125.52 37.1199 121.82 35.7799 120 33.7799C120.64 33.6999 120.88 33.5999 120.96 33.3399L117.52 32.4999C116.68 34.9999 113.04 38.5199 109.54 40.3199L109.66 40.5599C113.7 39.3199 117.86 36.6199 119.68 33.9999ZM133.56 29.6199C134.26 30.1999 134.94 30.7399 136.34 30.6999C138.18 30.6399 140.88 29.8799 142.08 29.3999C142.74 29.0999 142.94 28.8399 143.2 28.8399C143.92 28.8399 144.52 29.0599 144.52 29.7599C144.52 30.0599 144.36 30.3599 143.82 30.6399C142.82 31.1599 139.28 32.3799 135.8 32.3799C134.24 32.3799 133.82 31.3599 133.28 29.7799L133.56 29.6199ZM142.6 40.1199C142.6 40.8199 142.24 41.3199 141.56 41.3199C140.96 41.3199 140.44 40.9999 140.44 40.1999C140.44 39.4599 140.58 38.1399 140.56 36.7999C140.54 35.1799 140.32 34.5799 139.38 34.5799C138.36 34.5799 137.1 36.0199 136.42 36.8799C135.68 37.7799 135.08 39.0199 134.32 39.0599C133.62 39.0799 133.32 38.4999 133.3 37.6999C133.3 36.9999 133.96 36.6199 134.76 35.7999C137.16 33.3999 138.56 30.1599 138.8 29.0999C138.88 28.7799 138.88 28.5399 138.52 28.2999C138.22 28.1199 137.84 27.9599 137.32 27.7799L137.34 27.4999C137.8 27.2999 138.4 27.0799 138.8 27.0999C139.64 27.0999 141.24 27.3799 141.24 28.0599C141.24 28.3399 141.1 28.4999 140.9 28.8799C140.64 29.3799 140.28 30.0599 140 30.5999C139.66 31.1999 139.04 32.5399 137.68 34.4399C137.58 34.5599 137.66 34.6599 137.82 34.5599C138.52 34.0999 139.18 33.7799 139.98 33.7799C141.28 33.7799 142.1 34.5999 142.32 35.9999C142.6 37.3399 142.6 39.1599 142.6 40.1199ZM145.54 31.9599C146.52 32.0199 147.04 32.1199 147.54 32.4199C148.24 32.7999 149.1 33.7999 149.1 34.5599C149.1 35.1599 148.52 35.1399 147.52 35.4199C145.64 35.9399 142.6 37.0199 140.86 37.8999C139.04 38.8599 137.52 40.0599 137.52 41.1999C137.52 41.9999 138.28 42.5799 140.22 42.5799C143.2 42.5799 144.38 41.9199 145.18 41.9199C146.14 41.9199 147.04 42.1399 147.04 42.9999C147.04 43.5599 146.8 43.8999 146.06 44.1199C145.14 44.3999 143.24 44.6599 141.54 44.6599C137.64 44.6599 136.4 43.2599 136.4 41.4999C136.4 39.6399 138.9 37.7399 141.06 36.4399C142.56 35.5599 145.02 34.4799 146.22 33.7599C146.56 33.5599 146.62 33.3399 146.36 33.0399C146.16 32.7799 145.72 32.4999 145.38 32.2999L145.54 31.9599ZM162.16 29.2199V29.7999H170.74V29.2199H162.16ZM166.64 30.3199C166.54 31.2799 166.32 32.6399 166.08 33.5399H166.56C167.34 32.8799 168.1 31.9999 168.62 31.3199C169.06 31.3199 169.28 31.1399 169.34 30.8799L166.64 30.3199ZM163.44 33.2999V33.8599H171.56C171.84 33.8599 172.04 33.7599 172.1 33.5399C171.34 32.8799 170.1 31.9599 170.1 31.9599L169 33.2999H163.44ZM163.48 36.4999V37.0799H171.24C171.5 37.0799 171.7 36.9799 171.76 36.7599C171.08 36.0799 169.92 35.1399 169.92 35.1399L168.9 36.4999H163.48ZM163.48 39.7399V40.2999H171.28C171.54 40.2999 171.76 40.1999 171.8 39.9799C171.12 39.3199 169.96 38.3599 169.96 38.3599L168.94 39.7399H163.48ZM163.44 43.1599V43.7399H171.94C172.22 43.7399 172.44 43.6399 172.5 43.4199C171.72 42.6799 170.46 41.6399 170.46 41.6399L169.32 43.1599H163.44ZM166.1 33.2999V43.4399H168.16V33.2999H166.1ZM164.3 33.2999H164.56L163.34 32.8399L162.24 34.6599V45.1399H162.62C163.66 45.1399 164.3 44.6599 164.3 44.4999V33.2999ZM169.86 29.2199C169.72 29.8799 169.4 31.0799 169.22 31.7399L169.42 31.8599C170.16 31.4399 171.24 30.6799 171.86 30.1799C172.26 30.1599 172.46 30.1199 172.62 29.9599L170.72 28.1399L169.64 29.2199H169.86ZM153.64 28.2799L153.8 28.8599H161.3C161.6 28.8599 161.8 28.7599 161.86 28.5399C161.04 27.8199 159.74 26.8199 159.74 26.8199L158.58 28.2799H153.64ZM155.98 28.2799C155.64 32.0599 154.92 36.0599 153.46 38.9999L153.74 39.1999C156.3 36.3399 157.7 32.7799 158.26 28.5999V28.2799H155.98ZM156.06 34.1799V34.7399H159.64V34.1799H156.06ZM156.04 41.2599V41.8199H159.66V41.2599H156.04ZM158.62 34.1799V43.5199H158.96C159.64 43.5199 160.64 43.0799 160.66 42.9399V34.9599C160.94 34.8799 161.16 34.7599 161.26 34.6399L159.38 33.1999L158.44 34.1799H158.62ZM157.04 34.1799H157.3L156.12 33.6999L155.06 35.2999V44.4399H155.42C156.42 44.4399 157.04 43.9799 157.04 43.8399V34.1799ZM165.04 26.3599C164.5 29.5799 163.06 33.7399 160.52 36.3999L160.7 36.5999C164.2 34.4199 166.18 30.6599 167.2 27.5999C167.72 27.5799 167.88 27.4399 167.96 27.1999L165.04 26.3599ZM162.18 28.1399C162.22 28.9999 161.62 29.8999 161.04 30.2399C160.46 30.5399 160.08 31.0599 160.28 31.6999C160.54 32.3999 161.44 32.5199 161.98 32.1599C162.78 31.6199 163.26 30.1599 162.48 28.1399H162.18ZM183.74 27.7999L183.92 28.3799H192.54V27.7999H183.74ZM191.48 27.7999C191.4 31.5999 191.24 33.3999 190.84 33.7599C190.72 33.8799 190.58 33.9199 190.3 33.9199C189.94 33.9199 189.02 33.8799 188.5 33.8399L188.48 34.0999C189.12 34.2399 189.6 34.4799 189.86 34.7799C190.1 35.0599 190.14 35.5999 190.14 36.2399C191.12 36.2399 191.82 35.9999 192.38 35.5599C193.26 34.8399 193.5 33.1599 193.62 28.7199C194.02 28.6399 194.26 28.5399 194.4 28.3599L192.4 26.7199L191.28 27.7999H191.48ZM183.98 29.9599L183.84 30.1599C185.42 30.8399 187.62 32.2399 188.66 33.4399C191.02 33.8599 190.9 29.4599 183.98 29.9599ZM186.16 35.8799L186.02 36.0599C187.1 36.6199 188.42 37.7599 188.92 38.7999C191.04 39.6199 191.68 35.4599 186.16 35.8799ZM191.44 38.1399L191.22 38.2399C191.82 39.4799 192.4 41.1799 192.38 42.6799C194.2 44.4999 196.42 40.5599 191.44 38.1399ZM186.56 27.7999C186.32 31.3799 185.6 34.0599 182.98 36.1999L183.16 36.4599C187.32 34.7199 188.46 31.8799 188.98 28.1199V27.7999H186.56ZM185.78 37.5999V42.9599C185.78 44.2799 186.04 44.6999 187.64 44.6999H189C191.34 44.6999 192.1 44.2199 192.1 43.4199C192.1 43.0399 191.98 42.7999 191.46 42.5799L191.4 40.6599H191.18C190.92 41.5199 190.66 42.2799 190.5 42.5199C190.38 42.6799 190.28 42.6999 190.12 42.7199C189.96 42.7199 189.62 42.7199 189.22 42.7199H188.24C187.84 42.7199 187.78 42.6399 187.78 42.4199V38.3399C188.16 38.2799 188.34 38.0999 188.38 37.8399L185.78 37.5999ZM184.36 38.2799C184.46 39.3799 183.8 40.5799 183.24 41.0599C182.68 41.4199 182.36 41.9999 182.66 42.6199C183 43.2999 184 43.3199 184.48 42.7999C185.16 42.0599 185.46 40.4399 184.66 38.2799H184.36ZM176.46 27.8799L176.62 28.4399H182.26C182.54 28.4399 182.72 28.3399 182.78 28.1199C182.06 27.4599 180.9 26.4999 180.9 26.4999L179.86 27.8799H176.46ZM176.4 32.9999L176.56 33.5599H182.3C182.58 33.5599 182.78 33.4599 182.82 33.2399C182.14 32.5999 181.02 31.6799 181.02 31.6799L180.02 32.9999H176.4ZM176.4 35.5999L176.56 36.1599H182.3C182.58 36.1599 182.78 36.0599 182.82 35.8399C182.14 35.1999 181.02 34.2799 181.02 34.2799L180.02 35.5999H176.4ZM175.46 30.3999L175.62 30.9599H183.28C183.56 30.9599 183.76 30.8599 183.82 30.6399C183.1 29.9799 181.92 29.0399 181.92 29.0399L180.88 30.3999H175.46ZM176.4 38.2999V45.1599H176.7C177.58 45.1599 178.48 44.6799 178.48 44.4999V38.8799H181.56V38.2999H178.56L176.4 37.4199V38.2999ZM180.44 38.2999V44.3999H180.8C181.52 44.3999 182.52 43.9599 182.54 43.7999V39.1799C182.92 39.0999 183.16 38.9399 183.28 38.7999L181.24 37.2599L180.26 38.2999H180.44ZM177.46 42.6399V43.1999H181.52V42.6399H177.46ZM198.42 30.6799C198.4 31.1199 198.4 31.6599 198.52 32.1199C198.74 32.8999 199.9 33.9599 200.7 33.9599C201.4 33.9599 201.8 33.5399 202.76 33.2599C203.96 32.9199 206.24 32.3799 208.96 32.1599C212.8 31.8199 214.1 32.3999 215.02 32.3999C215.62 32.3999 216 32.2799 216 31.6199C216 30.6799 214.68 30.0999 213.6 30.0999C213.28 30.0999 212.84 30.3799 208.6 30.8599C206.92 31.0199 201.5 31.7399 200.42 31.7199C199.74 31.6999 199.42 31.3599 198.72 30.5399L198.42 30.6799ZM205.3 28.3199C205.86 28.3999 206.34 28.4999 206.68 28.6599C207 28.7999 207.1 28.9199 207.14 29.2599C207.34 30.6199 207.54 34.2399 207.56 34.9999L209.18 36.5599C209.1 34.4999 209.16 30.8799 209.26 29.9399C209.3 29.4399 209.64 29.0199 209.64 28.4799C209.64 27.8399 208.2 27.2999 207.08 27.2999C206.4 27.2999 205.74 27.6999 205.28 28.0399L205.3 28.3199ZM206.7 34.2399C205.06 34.2399 203.84 35.5599 203.84 37.3399C203.84 39.3399 205.3 41.0199 207.32 40.4399C206.54 42.3199 204.5 43.6199 202.06 44.4799L202.22 44.8599C206.6 44.2399 210 42.1199 210 37.9599C210 35.9799 209.12 34.2399 206.7 34.2399ZM206.44 38.7999C205.52 38.7999 204.88 38.0199 204.88 37.1199C204.88 36.0799 205.56 35.2799 206.5 35.2799C207.34 35.2799 207.7 36.0799 207.7 37.0799C207.7 38.2399 207.38 38.7999 206.44 38.7999ZM224.3 28.2399C224.64 28.8799 225.12 29.4799 225.64 29.4799C226.38 29.4799 228.48 28.9599 229.54 28.6199C230.34 28.3599 230.32 28.0799 230.74 28.0799C231.7 28.0799 233.28 29.3399 233.28 30.1799C233.28 30.7399 232.56 30.8999 231.9 31.3599C230.58 32.2399 228.12 34.3599 227.36 35.1399C227.14 35.3599 227.26 35.4999 227.46 35.4399C228.14 35.2199 229.26 34.7799 230.82 34.7799C233.52 34.7799 235.76 36.4599 235.74 39.4599C235.72 42.1399 233.34 44.2799 229.22 44.2799C226.9 44.2799 225.16 43.2599 225.16 41.5399C225.16 40.1999 226.34 39.3399 227.82 39.3399C229.26 39.3399 231.02 40.1999 231.38 42.3999L229.5 42.7599C229.32 41.2799 228.46 40.2799 227.3 40.2799C226.54 40.2799 226.06 40.6799 226.06 41.2999C226.06 42.0399 226.96 42.5199 228.5 42.5199C232.22 42.5199 233.64 40.7399 233.66 38.7399C233.68 36.9599 232.5 35.6199 230.2 35.6199C227.46 35.6199 225.56 37.5999 223.86 39.7999C223.38 40.4399 223.16 40.5999 222.68 40.5999C222.24 40.5799 221.8 40.0599 221.84 39.2999C221.88 38.7599 222.18 38.2999 222.86 37.6799C224.82 35.7599 229 31.7799 230.06 30.3799C230.4 29.9399 230.18 29.7799 229.86 29.8399C229.12 29.9799 227.9 30.6599 227.12 31.0999C226.74 31.3199 226.42 31.6399 225.98 31.6399C224.82 31.6399 223.92 30.2799 223.86 29.5599C223.82 29.1199 223.88 28.7599 224.02 28.2799L224.3 28.2399Z" fill="white"/>
</svg>
