<svg width="37" height="9" viewBox="0 0 37 9" fill="none" xmlns="http://www.w3.org/2000/svg">
<path d="M0.218273 7.87H1.49227V2.35399C2.17827 1.58399 2.82227 1.19199 3.39627 1.19199C4.37627 1.19199 4.82427 1.79399 4.82427 3.22199V7.87H6.09827V2.35399C6.81227 1.58399 7.41427 1.19199 8.00227 1.19199C8.98227 1.19199 9.43027 1.79399 9.43027 3.22199V7.87H10.7043V3.05399C10.7043 1.12199 9.94827 0.0859944 8.39427 0.0859944C7.47027 0.0859944 6.67227 0.687995 5.87427 1.52799C5.58027 0.631995 4.95027 0.0859944 3.78827 0.0859944C2.87827 0.0859944 2.08027 0.659994 1.42227 1.37399H1.38027L1.25427 0.267995H0.218273V7.87ZM17.5332 8.066C19.3952 8.066 21.0472 6.596 21.0472 4.08999C21.0472 1.54199 19.3952 0.0859944 17.5332 0.0859944C15.6572 0.0859944 14.0052 1.54199 14.0052 4.08999C14.0052 6.596 15.6572 8.066 17.5332 8.066ZM17.5332 7.002C16.2032 7.002 15.3212 5.82599 15.3212 4.08999C15.3212 2.32599 16.2032 1.14999 17.5332 1.14999C18.8492 1.14999 19.7312 2.32599 19.7312 4.08999C19.7312 5.82599 18.8492 7.002 17.5332 7.002ZM24.4694 7.87H25.7434V2.99799C26.2474 1.69599 27.0314 1.23399 27.6614 1.23399C27.9694 1.23399 28.1374 1.27599 28.4034 1.35999L28.6414 0.239995C28.3894 0.127995 28.1654 0.0859944 27.8294 0.0859944C26.9754 0.0859944 26.1914 0.687995 25.6734 1.65399H25.6314L25.5054 0.267995H24.4694V7.87ZM34.1718 8.066C35.2078 8.066 36.0058 7.716 36.6778 7.282L36.2158 6.428C35.6558 6.806 35.0538 7.044 34.3258 7.044C32.8698 7.044 31.8898 5.994 31.7918 4.38399H36.9158C36.9578 4.18799 36.9718 3.922 36.9718 3.65599C36.9718 1.47199 35.8798 0.0859944 33.9478 0.0859944C32.1978 0.0859944 30.5318 1.61199 30.5318 4.08999C30.5318 6.582 32.1418 8.066 34.1718 8.066ZM31.7778 3.45999C31.9458 1.96199 32.8978 1.10799 33.9618 1.10799C35.1658 1.10799 35.8518 1.93399 35.8518 3.45999H31.7778Z" fill="#333333"/>
</svg>
