<svg width="55" height="22" viewBox="0 0 55 22" fill="none" xmlns="http://www.w3.org/2000/svg">
<path d="M50.25 15.86L55 11.11L50.25 6.35999V15.86Z" fill="#333333"/>
<path d="M2.64231 15.36H4.09831V9.05598C4.88231 8.17598 5.61831 7.72798 6.27431 7.72798C7.39431 7.72798 7.90631 8.41599 7.90631 10.048V15.36H9.36231V9.05598C10.1783 8.17598 10.8663 7.72798 11.5383 7.72798C12.6583 7.72798 13.1703 8.41599 13.1703 10.048V15.36H14.6263V9.85599C14.6263 7.64798 13.7623 6.46398 11.9863 6.46398C10.9303 6.46398 10.0183 7.15199 9.10631 8.11199C8.77031 7.08799 8.05031 6.46398 6.72231 6.46398C5.68231 6.46398 4.77031 7.11998 4.01831 7.93599H3.97031L3.82631 6.67198H2.64231V15.36ZM22.4308 15.584C24.5588 15.584 26.4468 13.904 26.4468 11.04C26.4468 8.12799 24.5588 6.46398 22.4308 6.46398C20.2868 6.46398 18.3988 8.12799 18.3988 11.04C18.3988 13.904 20.2868 15.584 22.4308 15.584ZM22.4308 14.368C20.9108 14.368 19.9028 13.024 19.9028 11.04C19.9028 9.02398 20.9108 7.67999 22.4308 7.67999C23.9348 7.67999 24.9428 9.02398 24.9428 11.04C24.9428 13.024 23.9348 14.368 22.4308 14.368ZM30.3579 15.36H31.8139V9.79199C32.3899 8.30399 33.2859 7.77598 34.0059 7.77598C34.3579 7.77598 34.5499 7.82399 34.8539 7.91998L35.1259 6.63999C34.8379 6.51198 34.5819 6.46398 34.1979 6.46398C33.2219 6.46398 32.3259 7.15199 31.7339 8.25598H31.6859L31.5419 6.67198H30.3579V15.36ZM41.4463 15.584C42.6303 15.584 43.5423 15.184 44.3103 14.688L43.7823 13.712C43.1423 14.144 42.4543 14.416 41.6223 14.416C39.9583 14.416 38.8383 13.216 38.7263 11.376H44.5823C44.6303 11.152 44.6463 10.848 44.6463 10.544C44.6463 8.04799 43.3983 6.46398 41.1903 6.46398C39.1903 6.46398 37.2863 8.20798 37.2863 11.04C37.2863 13.888 39.1263 15.584 41.4463 15.584ZM38.7103 10.32C38.9023 8.60799 39.9903 7.63199 41.2063 7.63199C42.5823 7.63199 43.3663 8.57598 43.3663 10.32H38.7103Z" fill="#333333"/>
</svg>
