<svg width="244" height="35" viewBox="0 0 244 35" fill="none" xmlns="http://www.w3.org/2000/svg">
<path d="M0.908094 34L14.3961 0.399998H16.9881L30.4281 34H27.1641L23.1801 23.872H8.15609L4.17209 34H0.908094ZM9.16409 21.04H22.1241L15.6921 4.576L9.16409 21.04ZM43.33 34.528C41.282 34.528 39.458 34.032 37.858 33.04C36.258 32.016 34.994 30.592 34.066 28.768C33.138 26.944 32.674 24.848 32.674 22.48C32.674 20.112 33.138 18.032 34.066 16.24C34.994 14.416 36.258 13.008 37.858 12.016C39.458 10.992 41.282 10.48 43.33 10.48C44.962 10.48 46.466 10.816 47.842 11.488C49.25 12.128 50.45 13.088 51.442 14.368L49.138 16.096C47.698 14.176 45.762 13.216 43.33 13.216C41.09 13.216 39.234 14.064 37.762 15.76C36.322 17.424 35.602 19.664 35.602 22.48C35.602 25.296 36.322 27.552 37.762 29.248C39.234 30.944 41.09 31.792 43.33 31.792C45.762 31.792 47.698 30.832 49.138 28.912L51.442 30.64C49.394 33.232 46.69 34.528 43.33 34.528ZM65.6893 34.528C63.6413 34.528 61.8173 34.032 60.2173 33.04C58.6173 32.016 57.3533 30.592 56.4253 28.768C55.4973 26.944 55.0333 24.848 55.0333 22.48C55.0333 20.112 55.4973 18.032 56.4253 16.24C57.3533 14.416 58.6173 13.008 60.2173 12.016C61.8173 10.992 63.6413 10.48 65.6893 10.48C67.3213 10.48 68.8253 10.816 70.2013 11.488C71.6093 12.128 72.8093 13.088 73.8013 14.368L71.4973 16.096C70.0573 14.176 68.1213 13.216 65.6893 13.216C63.4493 13.216 61.5933 14.064 60.1213 15.76C58.6813 17.424 57.9613 19.664 57.9613 22.48C57.9613 25.296 58.6813 27.552 60.1213 29.248C61.5933 30.944 63.4493 31.792 65.6893 31.792C68.1213 31.792 70.0573 30.832 71.4973 28.912L73.8013 30.64C71.7533 33.232 69.0493 34.528 65.6893 34.528ZM88.0967 34.528C86.0167 34.528 84.1607 34.048 82.5287 33.088C80.9287 32.096 79.6647 30.704 78.7367 28.912C77.8407 27.088 77.3927 24.944 77.3927 22.48C77.3927 20.08 77.8407 17.984 78.7367 16.192C79.6647 14.4 80.9287 13.008 82.5287 12.016C84.1287 10.992 85.9527 10.48 88.0007 10.48C90.0807 10.48 91.8407 11.008 93.2807 12.064C94.7527 13.088 95.8727 14.432 96.6407 16.096C97.4087 17.728 97.7927 19.456 97.7927 21.28V22.24H80.3207C80.2567 25.12 80.9287 27.456 82.3367 29.248C83.7767 31.008 85.7127 31.888 88.1447 31.888C89.9367 31.888 91.4407 31.44 92.6567 30.544C93.8727 29.616 94.8647 28.256 95.6327 26.464L98.0327 27.856C95.9847 32.304 92.6727 34.528 88.0967 34.528ZM80.5127 19.744H94.9127C94.7527 18.496 94.3527 17.36 93.7127 16.336C93.1047 15.312 92.3047 14.496 91.3127 13.888C90.3527 13.28 89.2487 12.976 88.0007 12.976C86.0487 12.976 84.4007 13.584 83.0567 14.8C81.7447 15.984 80.8967 17.632 80.5127 19.744ZM111.733 34.528C109.685 34.528 107.829 34.128 106.165 33.328C104.501 32.528 103.157 31.392 102.133 29.92L104.245 28.144C105.013 29.328 106.053 30.24 107.365 30.88C108.709 31.52 110.197 31.84 111.829 31.84C113.397 31.84 114.725 31.504 115.813 30.832C116.933 30.128 117.493 29.04 117.493 27.568C117.493 26.256 116.965 25.344 115.909 24.832C114.853 24.32 113.237 23.84 111.061 23.392C109.717 23.104 108.437 22.752 107.221 22.336C106.037 21.92 105.077 21.296 104.341 20.464C103.605 19.6 103.237 18.416 103.237 16.912C103.237 15.536 103.605 14.368 104.341 13.408C105.109 12.448 106.117 11.712 107.365 11.2C108.613 10.688 109.941 10.432 111.349 10.432C115.125 10.432 117.893 11.776 119.653 14.464L117.685 16.24C116.373 14.16 114.277 13.12 111.397 13.12C109.733 13.12 108.453 13.488 107.557 14.224C106.661 14.928 106.213 15.808 106.213 16.864C106.213 18.048 106.693 18.896 107.653 19.408C108.645 19.888 110.165 20.352 112.213 20.8C113.653 21.12 114.997 21.52 116.245 22C117.525 22.48 118.549 23.152 119.317 24.016C120.085 24.88 120.469 26.08 120.469 27.616C120.469 29.664 119.669 31.328 118.069 32.608C116.501 33.888 114.389 34.528 111.733 34.528ZM133.717 34.528C131.669 34.528 129.813 34.128 128.149 33.328C126.485 32.528 125.141 31.392 124.117 29.92L126.229 28.144C126.997 29.328 128.037 30.24 129.349 30.88C130.693 31.52 132.181 31.84 133.813 31.84C135.381 31.84 136.709 31.504 137.797 30.832C138.917 30.128 139.477 29.04 139.477 27.568C139.477 26.256 138.949 25.344 137.893 24.832C136.837 24.32 135.221 23.84 133.045 23.392C131.701 23.104 130.421 22.752 129.205 22.336C128.021 21.92 127.061 21.296 126.325 20.464C125.589 19.6 125.221 18.416 125.221 16.912C125.221 15.536 125.589 14.368 126.325 13.408C127.093 12.448 128.101 11.712 129.349 11.2C130.597 10.688 131.925 10.432 133.333 10.432C137.109 10.432 139.877 11.776 141.637 14.464L139.669 16.24C138.357 14.16 136.261 13.12 133.381 13.12C131.717 13.12 130.437 13.488 129.541 14.224C128.645 14.928 128.197 15.808 128.197 16.864C128.197 18.048 128.677 18.896 129.637 19.408C130.629 19.888 132.149 20.352 134.197 20.8C135.637 21.12 136.981 21.52 138.229 22C139.509 22.48 140.533 23.152 141.301 24.016C142.069 24.88 142.453 26.08 142.453 27.616C142.453 29.664 141.653 31.328 140.053 32.608C138.485 33.888 136.373 34.528 133.717 34.528ZM166.22 24.976C166.108 24.8 165.932 24.608 165.692 24.4C165.468 24.192 165.26 24.032 165.068 23.92C165.612 23.552 166.196 23.072 166.82 22.48C167.46 21.872 168.076 21.232 168.668 20.56C169.276 19.872 169.796 19.224 170.228 18.616C169.604 18.632 168.82 18.656 167.876 18.688C166.948 18.704 165.94 18.736 164.852 18.784C163.764 18.816 162.668 18.848 161.564 18.88C160.46 18.912 159.412 18.944 158.42 18.976C157.428 19.008 156.572 19.04 155.852 19.072C155.132 19.088 154.612 19.104 154.292 19.12L154.244 17.488C154.692 17.504 155.372 17.512 156.284 17.512C157.196 17.512 158.236 17.504 159.404 17.488C160.588 17.472 161.804 17.448 163.052 17.416C164.316 17.384 165.516 17.352 166.652 17.32C167.804 17.288 168.804 17.256 169.652 17.224C170.5 17.176 171.092 17.128 171.428 17.08L172.388 17.848C172.084 18.424 171.684 19.048 171.188 19.72C170.708 20.376 170.18 21.04 169.604 21.712C169.028 22.368 168.444 22.984 167.852 23.56C167.276 24.12 166.732 24.592 166.22 24.976ZM157.292 34.528C157.18 34.352 157.012 34.152 156.788 33.928C156.58 33.688 156.364 33.496 156.14 33.352C158.284 32.024 159.828 30.304 160.772 28.192C161.716 26.08 162.172 23.608 162.14 20.776H163.724C163.724 23.88 163.196 26.584 162.14 28.888C161.1 31.176 159.484 33.056 157.292 34.528ZM179.756 34.408C179.724 34.328 179.636 34.192 179.492 34C179.364 33.824 179.228 33.648 179.084 33.472C178.956 33.28 178.852 33.152 178.772 33.088C180.788 32.272 182.692 31.216 184.484 29.92C186.276 28.608 187.868 27.136 189.26 25.504C190.652 23.856 191.748 22.128 192.548 20.32C192.1 20.336 191.556 20.36 190.916 20.392C190.292 20.408 189.66 20.424 189.02 20.44C188.38 20.456 187.796 20.472 187.268 20.488C186.756 20.504 186.38 20.512 186.14 20.512C185.34 21.584 184.428 22.6 183.404 23.56C182.396 24.52 181.3 25.376 180.116 26.128C180.068 26.064 179.964 25.952 179.804 25.792C179.66 25.632 179.5 25.48 179.324 25.336C179.164 25.176 179.036 25.072 178.94 25.024C180.172 24.304 181.324 23.44 182.396 22.432C183.468 21.408 184.412 20.304 185.228 19.12C186.06 17.936 186.7 16.752 187.148 15.568L188.612 16.096C188.404 16.608 188.172 17.112 187.916 17.608C187.676 18.104 187.412 18.592 187.124 19.072C187.636 19.056 188.244 19.04 188.948 19.024C189.652 19.008 190.348 18.992 191.036 18.976C191.74 18.96 192.332 18.944 192.812 18.928C193.308 18.912 193.596 18.896 193.676 18.88L194.564 19.456C193.796 21.584 192.684 23.6 191.228 25.504C189.772 27.408 188.068 29.12 186.116 30.64C184.164 32.16 182.044 33.416 179.756 34.408ZM211.364 33.112C210.02 33.112 209.044 32.896 208.436 32.464C207.844 32.032 207.548 31.264 207.548 30.16V23.8C206.268 24.056 205.084 24.288 203.996 24.496C202.908 24.704 202.084 24.856 201.524 24.952L201.188 23.416C201.748 23.336 202.604 23.2 203.756 23.008C204.908 22.816 206.172 22.6 207.548 22.36V16.312H209.108V22.072C210.116 21.88 211.108 21.696 212.084 21.52C213.076 21.328 213.98 21.152 214.796 20.992C215.628 20.832 216.332 20.688 216.908 20.56C217.484 20.416 217.876 20.312 218.084 20.248L219.068 21.016C218.812 21.448 218.484 21.944 218.084 22.504C217.7 23.064 217.284 23.648 216.836 24.256C216.388 24.864 215.94 25.44 215.492 25.984C215.06 26.528 214.66 26.992 214.292 27.376L213.092 26.344C213.444 26.04 213.836 25.64 214.268 25.144C214.7 24.648 215.132 24.112 215.564 23.536C216.012 22.96 216.412 22.432 216.764 21.952C216.204 22.064 215.508 22.208 214.676 22.384C213.86 22.544 212.972 22.72 212.012 22.912C211.068 23.104 210.1 23.296 209.108 23.488V29.776C209.108 30.464 209.292 30.936 209.66 31.192C210.044 31.432 210.628 31.552 211.412 31.552C212.26 31.552 213.132 31.528 214.028 31.48C214.94 31.416 215.796 31.336 216.596 31.24C217.412 31.128 218.092 31 218.636 30.856C218.604 30.936 218.564 31.096 218.516 31.336C218.484 31.56 218.452 31.792 218.42 32.032C218.404 32.256 218.396 32.408 218.396 32.488C217.964 32.6 217.436 32.696 216.812 32.776C216.204 32.856 215.564 32.92 214.892 32.968C214.22 33.016 213.572 33.056 212.948 33.088C212.324 33.104 211.796 33.112 211.364 33.112ZM227.012 32.944C226.964 32.864 226.876 32.736 226.748 32.56C226.636 32.368 226.508 32.184 226.364 32.008C226.236 31.816 226.124 31.688 226.028 31.624C227.276 31.08 228.532 30.392 229.796 29.56C231.06 28.712 232.26 27.768 233.396 26.728C234.548 25.672 235.588 24.56 236.516 23.392C237.444 22.208 238.196 21.008 238.772 19.792C238.084 19.84 237.268 19.896 236.324 19.96C235.396 20.008 234.436 20.064 233.444 20.128C232.452 20.176 231.524 20.224 230.66 20.272C229.812 20.304 229.124 20.336 228.596 20.368L228.404 18.784C228.772 18.784 229.332 18.776 230.084 18.76C230.852 18.728 231.716 18.696 232.676 18.664C233.636 18.616 234.588 18.568 235.532 18.52C236.476 18.472 237.324 18.424 238.076 18.376C238.828 18.312 239.38 18.256 239.732 18.208L240.764 18.856C240.38 19.928 239.868 20.992 239.228 22.048C238.588 23.104 237.86 24.12 237.044 25.096C237.556 25.512 238.116 25.992 238.724 26.536C239.348 27.08 239.964 27.648 240.572 28.24C241.196 28.832 241.772 29.408 242.3 29.968C242.828 30.512 243.268 31 243.62 31.432C243.524 31.496 243.388 31.608 243.212 31.768C243.052 31.912 242.884 32.064 242.708 32.224C242.548 32.368 242.428 32.488 242.348 32.584C242.028 32.136 241.612 31.632 241.1 31.072C240.588 30.512 240.036 29.936 239.444 29.344C238.852 28.752 238.26 28.184 237.668 27.64C237.076 27.08 236.54 26.6 236.06 26.2C234.732 27.624 233.276 28.92 231.692 30.088C230.124 31.256 228.564 32.208 227.012 32.944Z" fill="black"/>
</svg>
