<svg width="308" height="46" viewBox="0 0 308 46" fill="none" xmlns="http://www.w3.org/2000/svg">
<path d="M0.00465655 35V1.4H2.93266L21.8927 29.72V1.4H24.8687V35H21.9887L2.93266 6.392V35H0.00465655ZM33.2469 35V12.008H36.1269V35H33.2469ZM34.6869 7.016C34.0789 7.016 33.5509 6.808 33.1029 6.392C32.6549 5.944 32.4309 5.416 32.4309 4.808C32.4309 4.168 32.6549 3.64 33.1029 3.224C33.5509 2.808 34.0789 2.6 34.6869 2.6C35.2949 2.6 35.8069 2.808 36.2229 3.224C36.6389 3.64 36.8469 4.168 36.8469 4.808C36.8469 5.416 36.6389 5.944 36.2229 6.392C35.8069 6.808 35.2949 7.016 34.6869 7.016ZM53.033 45.368C48.777 45.368 45.577 43.704 43.433 40.376L45.833 38.792C47.433 41.32 49.833 42.584 53.033 42.584C55.401 42.584 57.209 41.8 58.457 40.232C59.705 38.696 60.329 36.376 60.329 33.272V29.144C59.529 30.392 58.489 31.384 57.209 32.12C55.929 32.824 54.473 33.176 52.841 33.176C50.889 33.176 49.145 32.728 47.609 31.832C46.105 30.936 44.905 29.672 44.009 28.04C43.145 26.408 42.713 24.488 42.713 22.28C42.713 20.072 43.145 18.168 44.009 16.568C44.905 14.936 46.105 13.672 47.609 12.776C49.145 11.88 50.889 11.432 52.841 11.432C54.505 11.432 55.993 11.816 57.305 12.584C58.617 13.32 59.673 14.344 60.473 15.656L60.521 12.008H63.209V33.272C63.209 37.432 62.265 40.488 60.377 42.44C58.521 44.392 56.073 45.368 53.033 45.368ZM52.985 30.488C54.425 30.488 55.705 30.152 56.825 29.48C57.945 28.776 58.825 27.816 59.465 26.6C60.105 25.352 60.425 23.912 60.425 22.28C60.425 20.648 60.105 19.224 59.465 18.008C58.825 16.792 57.945 15.848 56.825 15.176C55.705 14.472 54.425 14.12 52.985 14.12C51.577 14.12 50.313 14.472 49.193 15.176C48.105 15.848 47.241 16.792 46.601 18.008C45.961 19.224 45.641 20.648 45.641 22.28C45.641 23.912 45.961 25.352 46.601 26.6C47.241 27.816 48.105 28.776 49.193 29.48C50.313 30.152 51.577 30.488 52.985 30.488ZM70.3528 35V0.343997H73.2808V15.272C73.9528 14.184 74.8968 13.272 76.1128 12.536C77.3608 11.8 78.7688 11.432 80.3368 11.432C82.8008 11.432 84.7848 12.216 86.2888 13.784C87.7928 15.352 88.5448 17.592 88.5448 20.504V35H85.6648V20.936C85.6648 18.696 85.1208 17.016 84.0328 15.896C82.9768 14.776 81.6008 14.216 79.9048 14.216C78.6248 14.216 77.4728 14.504 76.4488 15.08C75.4568 15.624 74.6728 16.376 74.0968 17.336C73.5528 18.264 73.2808 19.304 73.2808 20.456V35H70.3528ZM103.751 35.528C101.703 35.528 100.167 35.096 99.1427 34.232C98.1187 33.368 97.6067 31.816 97.6067 29.576V14.696H92.6147V12.008H97.6067V3.56H100.487V12.008H107.495V14.696H100.487V29.096C100.487 30.536 100.791 31.528 101.399 32.072C102.007 32.584 102.951 32.84 104.231 32.84C104.775 32.84 105.351 32.76 105.959 32.6C106.567 32.44 107.079 32.264 107.495 32.072V34.904C107.047 35.064 106.471 35.208 105.767 35.336C105.063 35.464 104.391 35.528 103.751 35.528ZM113.348 35V1.4H116.276L127.844 18.728L139.268 1.4H142.292V35H139.268V6.536L128.66 22.712H127.028L116.324 6.536V35H113.348ZM156.044 35.432C153.804 35.464 151.98 34.952 150.572 33.896C149.196 32.84 148.508 31.304 148.508 29.288C148.508 27.752 149.02 26.408 150.044 25.256C151.1 24.104 152.428 23.208 154.028 22.568C155.66 21.896 157.34 21.56 159.068 21.56C161.436 21.56 163.308 22.12 164.684 23.24V19.304C164.684 17.16 164.236 15.768 163.34 15.128C162.444 14.456 161.004 14.12 159.02 14.12C157.74 14.12 156.316 14.36 154.748 14.84C153.18 15.288 151.852 15.864 150.764 16.568L149.372 14.264C150.62 13.464 152.124 12.792 153.884 12.248C155.676 11.704 157.388 11.432 159.02 11.432C161.932 11.432 164.076 11.992 165.452 13.112C166.828 14.232 167.516 16.296 167.516 19.304V32.024C167.516 32.632 167.676 32.984 167.996 33.08C168.348 33.144 169.1 33.064 170.252 32.84V34.904C169.932 35.032 169.5 35.144 168.956 35.24C168.412 35.368 167.9 35.432 167.42 35.432C166.332 35.432 165.628 35.208 165.308 34.76C164.988 34.312 164.796 33.464 164.732 32.216C163.74 33.304 162.428 34.104 160.796 34.616C159.164 35.128 157.58 35.4 156.044 35.432ZM156.188 32.792C157.724 32.76 159.148 32.52 160.46 32.072C161.804 31.624 162.86 30.984 163.628 30.152C164.428 29.288 164.796 28.248 164.732 27.032C164.636 26.04 164.092 25.304 163.1 24.824C162.108 24.312 160.828 24.072 159.26 24.104C157.948 24.104 156.684 24.328 155.468 24.776C154.252 25.224 153.26 25.848 152.492 26.648C151.756 27.416 151.388 28.312 151.388 29.336C151.388 30.52 151.836 31.4 152.732 31.976C153.628 32.52 154.78 32.792 156.188 32.792ZM175.587 35V12.008H178.371L178.515 15.992C179.155 14.648 180.163 13.56 181.539 12.728C182.947 11.864 184.499 11.432 186.195 11.432C186.643 11.432 187.091 11.464 187.539 11.528C188.019 11.56 188.419 11.624 188.739 11.72V14.552C188.451 14.488 188.035 14.424 187.491 14.36C186.979 14.296 186.451 14.264 185.907 14.264C184.563 14.264 183.331 14.584 182.211 15.224C181.091 15.832 180.195 16.664 179.523 17.72C178.883 18.744 178.563 19.912 178.563 21.224V35H175.587ZM193.634 35V0.343997H196.562V21.416L207.074 12.008H211.106L199.202 22.424L211.586 35H207.794L196.562 23.432V35H193.634ZM223.995 35.528C221.915 35.528 220.059 35.048 218.427 34.088C216.827 33.096 215.563 31.704 214.635 29.912C213.739 28.088 213.291 25.944 213.291 23.48C213.291 21.08 213.739 18.984 214.635 17.192C215.563 15.4 216.827 14.008 218.427 13.016C220.027 11.992 221.851 11.48 223.899 11.48C225.979 11.48 227.739 12.008 229.179 13.064C230.651 14.088 231.771 15.432 232.539 17.096C233.307 18.728 233.691 20.456 233.691 22.28V23.24H216.219C216.155 26.12 216.827 28.456 218.235 30.248C219.675 32.008 221.611 32.888 224.043 32.888C225.835 32.888 227.339 32.44 228.555 31.544C229.771 30.616 230.763 29.256 231.531 27.464L233.931 28.856C231.883 33.304 228.571 35.528 223.995 35.528ZM216.411 20.744H230.811C230.651 19.496 230.251 18.36 229.611 17.336C229.003 16.312 228.203 15.496 227.211 14.888C226.251 14.28 225.147 13.976 223.899 13.976C221.947 13.976 220.299 14.584 218.955 15.8C217.643 16.984 216.795 18.632 216.411 20.744ZM248.735 35.528C246.687 35.528 245.151 35.096 244.127 34.232C243.103 33.368 242.591 31.816 242.591 29.576V14.696H237.599V12.008H242.591V3.56H245.471V12.008H252.479V14.696H245.471V29.096C245.471 30.536 245.775 31.528 246.383 32.072C246.991 32.584 247.935 32.84 249.215 32.84C249.759 32.84 250.335 32.76 250.943 32.6C251.551 32.44 252.063 32.264 252.479 32.072V34.904C252.031 35.064 251.455 35.208 250.751 35.336C250.047 35.464 249.375 35.528 248.735 35.528ZM269.139 36.824C269.123 36.744 269.059 36.608 268.947 36.416C268.851 36.24 268.747 36.056 268.635 35.864C268.523 35.688 268.435 35.568 268.371 35.504C269.651 35.136 270.859 34.64 271.995 34.016C273.147 33.376 274.195 32.632 275.139 31.784C274.499 31.096 273.907 30.368 273.363 29.6C272.835 28.832 272.387 28.032 272.019 27.2C271.619 27.664 271.203 28.104 270.771 28.52C270.339 28.92 269.915 29.288 269.499 29.624C269.451 29.56 269.339 29.456 269.163 29.312C269.003 29.168 268.843 29.024 268.683 28.88C268.523 28.736 268.411 28.656 268.347 28.64C268.955 28.272 269.579 27.752 270.219 27.08C270.859 26.408 271.467 25.656 272.043 24.824C272.635 23.976 273.155 23.096 273.603 22.184C274.051 21.272 274.379 20.392 274.587 19.544L276.099 19.928C275.987 20.36 275.843 20.792 275.667 21.224C275.507 21.64 275.331 22.056 275.139 22.472H281.187L282.075 23.048C281.627 24.744 281.011 26.336 280.227 27.824C279.443 29.296 278.483 30.624 277.347 31.808C278.291 32.592 279.323 33.272 280.443 33.848C281.563 34.408 282.747 34.832 283.995 35.12C283.931 35.184 283.835 35.32 283.707 35.528C283.579 35.736 283.459 35.944 283.347 36.152C283.251 36.36 283.187 36.504 283.155 36.584C281.971 36.312 280.779 35.856 279.579 35.216C278.395 34.576 277.283 33.792 276.243 32.864C275.267 33.744 274.187 34.512 273.003 35.168C271.819 35.84 270.531 36.392 269.139 36.824ZM266.067 36.752V26C265.523 26.64 264.963 27.232 264.387 27.776C263.811 28.32 263.251 28.808 262.707 29.24C262.659 29.176 262.555 29.072 262.395 28.928C262.235 28.768 262.075 28.616 261.915 28.472C261.755 28.312 261.635 28.216 261.555 28.184C262.147 27.816 262.779 27.296 263.451 26.624C264.139 25.952 264.811 25.2 265.467 24.368C266.123 23.536 266.715 22.688 267.243 21.824C267.787 20.944 268.203 20.112 268.491 19.328H262.635V17.936H272.211V15.032H273.819V17.936H283.443V19.328H268.491L269.907 19.904C269.619 20.64 269.275 21.36 268.875 22.064C268.491 22.752 268.067 23.424 267.603 24.08V36.752H266.067ZM276.195 30.776C277.123 29.8 277.931 28.728 278.619 27.56C279.307 26.392 279.851 25.152 280.251 23.84H274.419C274.195 24.24 273.963 24.624 273.723 24.992C273.483 25.36 273.227 25.72 272.955 26.072C273.307 26.904 273.755 27.72 274.299 28.52C274.843 29.32 275.475 30.072 276.195 30.776ZM277.035 28.28C276.843 27.992 276.603 27.68 276.315 27.344C276.027 27.008 275.723 26.688 275.403 26.384C275.083 26.064 274.787 25.8 274.515 25.592L275.475 24.728C275.923 25.048 276.403 25.472 276.915 26C277.427 26.512 277.843 26.968 278.163 27.368C278.115 27.4 278.003 27.488 277.827 27.632C277.667 27.76 277.507 27.888 277.347 28.016C277.187 28.144 277.083 28.232 277.035 28.28ZM296.211 36.752V24.68H290.739V34.424H289.179V23.192H296.211V20.144H286.179V18.68H296.211V15.056H297.771V18.68H307.851V20.144H297.771V23.192H305.043V32.264C305.043 33.592 304.299 34.256 302.811 34.256H300.507C300.491 34.032 300.443 33.76 300.363 33.44C300.283 33.12 300.203 32.88 300.123 32.72H302.547C302.883 32.72 303.123 32.656 303.267 32.528C303.411 32.4 303.483 32.184 303.483 31.88V24.68H297.771V36.752H296.211Z" fill="black"/>
</svg>
