<svg width="320" height="36" viewBox="0 0 320 36" fill="none" xmlns="http://www.w3.org/2000/svg">
<path d="M0.841688 34L14.3297 0.399998H16.9217L30.3617 34H27.0977L23.1137 23.872H8.08969L4.10569 34H0.841688ZM9.09769 21.04H22.0577L15.6257 4.576L9.09769 21.04ZM40.9577 34.528C38.9097 34.528 37.3737 34.096 36.3497 33.232C35.3257 32.368 34.8137 30.816 34.8137 28.576V13.696H29.8217V11.008H34.8137V2.56H37.6937V11.008H44.7017V13.696H37.6937V28.096C37.6937 29.536 37.9977 30.528 38.6057 31.072C39.2137 31.584 40.1577 31.84 41.4377 31.84C41.9817 31.84 42.5577 31.76 43.1657 31.6C43.7737 31.44 44.2857 31.264 44.7017 31.072V33.904C44.2537 34.064 43.6777 34.208 42.9737 34.336C42.2697 34.464 41.5977 34.528 40.9577 34.528ZM59.0514 34.528C57.0034 34.528 55.4674 34.096 54.4434 33.232C53.4194 32.368 52.9074 30.816 52.9074 28.576V13.696H47.9154V11.008H52.9074V2.56H55.7874V11.008H62.7954V13.696H55.7874V28.096C55.7874 29.536 56.0914 30.528 56.6994 31.072C57.3074 31.584 58.2514 31.84 59.5314 31.84C60.0754 31.84 60.6514 31.76 61.2594 31.6C61.8674 31.44 62.3794 31.264 62.7954 31.072V33.904C62.3474 34.064 61.7714 34.208 61.0674 34.336C60.3634 34.464 59.6914 34.528 59.0514 34.528ZM68.1692 34V11.008H70.9532L71.0972 14.992C71.7372 13.648 72.7452 12.56 74.1212 11.728C75.5292 10.864 77.0812 10.432 78.7772 10.432C79.2252 10.432 79.6732 10.464 80.1212 10.528C80.6012 10.56 81.0012 10.624 81.3212 10.72V13.552C81.0332 13.488 80.6172 13.424 80.0732 13.36C79.5612 13.296 79.0332 13.264 78.4892 13.264C77.1452 13.264 75.9132 13.584 74.7932 14.224C73.6732 14.832 72.7772 15.664 72.1052 16.72C71.4652 17.744 71.1452 18.912 71.1452 20.224V34H68.1692ZM92.3601 34.432C90.1201 34.464 88.2961 33.952 86.8881 32.896C85.5121 31.84 84.8241 30.304 84.8241 28.288C84.8241 26.752 85.3361 25.408 86.3601 24.256C87.4161 23.104 88.7441 22.208 90.3441 21.568C91.9761 20.896 93.6561 20.56 95.3841 20.56C97.7521 20.56 99.6241 21.12 101 22.24V18.304C101 16.16 100.552 14.768 99.6561 14.128C98.7601 13.456 97.3201 13.12 95.3361 13.12C94.0561 13.12 92.6321 13.36 91.0641 13.84C89.4961 14.288 88.1681 14.864 87.0801 15.568L85.6881 13.264C86.9361 12.464 88.4401 11.792 90.2001 11.248C91.9921 10.704 93.7041 10.432 95.3361 10.432C98.2481 10.432 100.392 10.992 101.768 12.112C103.144 13.232 103.832 15.296 103.832 18.304V31.024C103.832 31.632 103.992 31.984 104.312 32.08C104.664 32.144 105.416 32.064 106.568 31.84V33.904C106.248 34.032 105.816 34.144 105.272 34.24C104.728 34.368 104.216 34.432 103.736 34.432C102.648 34.432 101.944 34.208 101.624 33.76C101.304 33.312 101.112 32.464 101.048 31.216C100.056 32.304 98.7441 33.104 97.1121 33.616C95.4801 34.128 93.8961 34.4 92.3601 34.432ZM92.5041 31.792C94.0401 31.76 95.4641 31.52 96.7761 31.072C98.1201 30.624 99.1761 29.984 99.9441 29.152C100.744 28.288 101.112 27.248 101.048 26.032C100.952 25.04 100.408 24.304 99.4161 23.824C98.4241 23.312 97.1441 23.072 95.5761 23.104C94.2641 23.104 93.0001 23.328 91.7841 23.776C90.5681 24.224 89.5761 24.848 88.8081 25.648C88.0721 26.416 87.7041 27.312 87.7041 28.336C87.7041 29.52 88.1521 30.4 89.0481 30.976C89.9441 31.52 91.0961 31.792 92.5041 31.792ZM120.326 34.528C118.278 34.528 116.454 34.032 114.854 33.04C113.254 32.016 111.99 30.592 111.062 28.768C110.134 26.944 109.67 24.848 109.67 22.48C109.67 20.112 110.134 18.032 111.062 16.24C111.99 14.416 113.254 13.008 114.854 12.016C116.454 10.992 118.278 10.48 120.326 10.48C121.958 10.48 123.462 10.816 124.838 11.488C126.246 12.128 127.446 13.088 128.438 14.368L126.134 16.096C124.694 14.176 122.758 13.216 120.326 13.216C118.086 13.216 116.23 14.064 114.758 15.76C113.318 17.424 112.598 19.664 112.598 22.48C112.598 25.296 113.318 27.552 114.758 29.248C116.23 30.944 118.086 31.792 120.326 31.792C122.758 31.792 124.694 30.832 126.134 28.912L128.438 30.64C126.39 33.232 123.686 34.528 120.326 34.528ZM143.239 34.528C141.191 34.528 139.655 34.096 138.631 33.232C137.607 32.368 137.095 30.816 137.095 28.576V13.696H132.103V11.008H137.095V2.56H139.975V11.008H146.983V13.696H139.975V28.096C139.975 29.536 140.279 30.528 140.887 31.072C141.495 31.584 142.439 31.84 143.719 31.84C144.263 31.84 144.839 31.76 145.447 31.6C146.055 31.44 146.567 31.264 146.983 31.072V33.904C146.535 34.064 145.959 34.208 145.255 34.336C144.551 34.464 143.879 34.528 143.239 34.528ZM153.173 34V11.008H156.053V34H153.173ZM154.613 6.016C154.005 6.016 153.477 5.808 153.029 5.392C152.581 4.944 152.357 4.416 152.357 3.808C152.357 3.168 152.581 2.64 153.029 2.224C153.477 1.808 154.005 1.6 154.613 1.6C155.221 1.6 155.733 1.808 156.149 2.224C156.565 2.64 156.773 3.168 156.773 3.808C156.773 4.416 156.565 4.944 156.149 5.392C155.733 5.808 155.221 6.016 154.613 6.016ZM173.295 34.528C171.247 34.528 169.423 34.016 167.823 32.992C166.223 31.968 164.959 30.56 164.031 28.768C163.103 26.944 162.639 24.848 162.639 22.48C162.639 20.112 163.103 18.032 164.031 16.24C164.959 14.416 166.223 12.992 167.823 11.968C169.423 10.944 171.247 10.432 173.295 10.432C175.375 10.432 177.215 10.944 178.815 11.968C180.415 12.992 181.679 14.416 182.607 16.24C183.535 18.032 183.999 20.112 183.999 22.48C183.999 24.848 183.535 26.944 182.607 28.768C181.679 30.56 180.415 31.968 178.815 32.992C177.215 34.016 175.375 34.528 173.295 34.528ZM173.295 31.792C174.799 31.792 176.127 31.408 177.279 30.64C178.463 29.872 179.391 28.8 180.063 27.424C180.735 26.016 181.071 24.368 181.071 22.48C181.071 20.592 180.735 18.96 180.063 17.584C179.391 16.176 178.463 15.088 177.279 14.32C176.127 13.552 174.799 13.168 173.295 13.168C171.055 13.168 169.199 14.016 167.727 15.712C166.287 17.376 165.567 19.632 165.567 22.48C165.567 25.296 166.287 27.552 167.727 29.248C169.199 30.944 171.055 31.792 173.295 31.792ZM189.81 34V11.008H192.546L192.642 14.272C193.378 13.184 194.354 12.272 195.57 11.536C196.818 10.8 198.226 10.432 199.794 10.432C202.258 10.432 204.242 11.216 205.746 12.784C207.25 14.352 208.002 16.592 208.002 19.504V34H205.122V19.936C205.122 17.696 204.578 16.016 203.49 14.896C202.434 13.776 201.058 13.216 199.362 13.216C198.082 13.216 196.93 13.504 195.906 14.08C194.914 14.624 194.13 15.376 193.554 16.336C193.01 17.264 192.738 18.304 192.738 19.456V34H189.81ZM236.278 35.896C236.262 35.816 236.198 35.696 236.086 35.536C235.99 35.376 235.886 35.216 235.774 35.056C235.662 34.896 235.566 34.792 235.486 34.744C235.71 34.68 235.918 34.608 236.11 34.528C236.302 34.448 236.486 34.368 236.662 34.288H228.118V25.336C227.542 25.944 226.926 26.488 226.27 26.968C226.238 26.904 226.158 26.808 226.03 26.68C225.902 26.536 225.774 26.4 225.646 26.272C225.518 26.128 225.422 26.032 225.358 25.984C226.302 25.312 227.15 24.528 227.902 23.632C228.654 22.72 229.31 21.736 229.87 20.68H226.318V19.432H230.47C230.614 19.08 230.75 18.728 230.878 18.376C231.006 18.008 231.126 17.64 231.238 17.272H228.982C228.502 17.992 227.974 18.64 227.398 19.216C227.254 19.088 227.078 18.944 226.87 18.784C226.678 18.624 226.502 18.504 226.342 18.424C226.774 18.04 227.19 17.584 227.59 17.056C227.99 16.528 228.35 15.976 228.67 15.4C228.99 14.824 229.246 14.288 229.438 13.792L230.686 14.176C230.574 14.48 230.438 14.792 230.278 15.112C230.118 15.416 229.942 15.728 229.75 16.048H236.83V17.272H232.654C232.462 18.008 232.222 18.728 231.934 19.432H237.454V20.68H231.382C231.174 21.112 230.942 21.544 230.686 21.976C230.43 22.392 230.166 22.8 229.894 23.2H232.27C232.462 22.832 232.654 22.424 232.846 21.976C233.054 21.528 233.198 21.176 233.278 20.92L234.598 21.136C234.486 21.44 234.342 21.776 234.166 22.144C233.99 22.496 233.814 22.848 233.638 23.2H236.902V24.328H233.542V26.488H236.446V27.544H233.542V29.8H236.446V30.856H233.542V33.112H236.998V34.12C238.15 33.496 238.966 32.656 239.446 31.6C239.926 30.528 240.182 29.24 240.214 27.736H238.414V14.896H246.406V27.736H244.342V33.4C244.342 33.624 244.39 33.776 244.486 33.856C244.582 33.936 244.782 33.984 245.086 34H245.878C246.23 34 246.486 33.936 246.646 33.808C246.822 33.664 246.95 33.392 247.03 32.992C247.11 32.592 247.174 31.992 247.222 31.192C247.398 31.288 247.606 31.392 247.846 31.504C248.102 31.6 248.334 31.68 248.542 31.744C248.446 32.8 248.302 33.592 248.11 34.12C247.918 34.648 247.646 35 247.294 35.176C246.958 35.352 246.51 35.44 245.95 35.44H244.846C244.158 35.44 243.67 35.336 243.382 35.128C243.094 34.936 242.95 34.608 242.95 34.144V27.736H241.582C241.534 29.864 241.102 31.584 240.286 32.896C239.47 34.208 238.134 35.208 236.278 35.896ZM239.83 26.392H244.99V23.776H239.83V26.392ZM239.83 22.576H244.99V20.008H239.83V22.576ZM239.83 18.808H244.99V16.264H239.83V18.808ZM229.486 33.112H232.198V30.856H229.486V33.112ZM229.486 29.8H232.198V27.544H229.486V29.8ZM229.486 26.488H232.198V24.328H229.486V26.488ZM251.062 35.8C251.046 35.72 250.982 35.576 250.87 35.368C250.758 35.16 250.638 34.952 250.51 34.744C250.398 34.552 250.31 34.424 250.246 34.36C252.918 33.56 254.854 32.344 256.054 30.712C257.27 29.064 257.902 26.92 257.95 24.28H250.678V22.816H260.254V14.08H261.886V22.816H271.51V24.28H264.094V32.92C264.094 33.176 264.158 33.368 264.286 33.496C264.414 33.608 264.67 33.664 265.054 33.664H268.39C268.87 33.664 269.262 33.576 269.566 33.4C269.87 33.208 270.11 32.872 270.286 32.392C270.462 31.896 270.582 31.2 270.646 30.304C270.822 30.416 271.054 30.528 271.342 30.64C271.646 30.736 271.902 30.824 272.11 30.904C271.998 32.056 271.798 32.944 271.51 33.568C271.222 34.176 270.854 34.592 270.406 34.816C269.958 35.056 269.406 35.176 268.75 35.176H264.646C263.862 35.176 263.318 35.048 263.014 34.792C262.71 34.536 262.558 34.112 262.558 33.52V24.28H259.558C259.494 27.16 258.79 29.56 257.446 31.48C256.102 33.4 253.974 34.84 251.062 35.8ZM265.462 21.592C265.382 21.528 265.246 21.448 265.054 21.352C264.862 21.24 264.67 21.136 264.478 21.04C264.286 20.928 264.142 20.856 264.046 20.824C264.382 20.392 264.75 19.872 265.15 19.264C265.55 18.64 265.934 17.992 266.302 17.32C266.686 16.648 266.998 16.032 267.238 15.472L268.774 16.144C268.502 16.72 268.166 17.352 267.766 18.04C267.382 18.712 266.982 19.36 266.566 19.984C266.166 20.608 265.798 21.144 265.462 21.592ZM256.126 21.736C255.934 21.24 255.654 20.656 255.286 19.984C254.918 19.296 254.526 18.624 254.11 17.968C253.71 17.296 253.35 16.744 253.03 16.312L254.494 15.616C254.83 16.064 255.198 16.608 255.598 17.248C255.998 17.888 256.382 18.536 256.75 19.192C257.118 19.848 257.414 20.432 257.638 20.944C257.542 20.976 257.39 21.048 257.182 21.16C256.974 21.272 256.766 21.384 256.558 21.496C256.35 21.608 256.206 21.688 256.126 21.736ZM280.462 35.344V27.976C279.502 28.408 278.518 28.8 277.51 29.152C276.518 29.504 275.51 29.824 274.486 30.112C274.454 30.016 274.382 29.864 274.27 29.656C274.174 29.448 274.07 29.24 273.958 29.032C273.846 28.824 273.758 28.688 273.694 28.624C275.326 28.256 276.942 27.752 278.542 27.112C280.158 26.472 281.694 25.736 283.15 24.904C282.91 24.584 282.622 24.224 282.286 23.824C281.95 23.424 281.606 23.032 281.254 22.648C280.902 22.264 280.582 21.944 280.294 21.688L281.614 20.776C281.902 21.032 282.222 21.352 282.574 21.736C282.942 22.12 283.302 22.52 283.654 22.936C284.006 23.336 284.302 23.704 284.542 24.04C285.742 23.256 286.838 22.408 287.83 21.496C288.822 20.584 289.662 19.624 290.35 18.616H282.55C281.606 19.448 280.59 20.2 279.502 20.872C278.43 21.528 277.31 22.104 276.142 22.6C276.11 22.536 276.03 22.416 275.902 22.24C275.774 22.048 275.646 21.856 275.518 21.664C275.39 21.472 275.294 21.352 275.23 21.304C276.094 21 276.99 20.584 277.918 20.056C278.846 19.528 279.734 18.928 280.582 18.256C281.446 17.584 282.23 16.88 282.934 16.144C283.638 15.408 284.206 14.688 284.638 13.984L286.102 14.584C285.798 15.064 285.462 15.528 285.094 15.976C284.742 16.408 284.374 16.832 283.99 17.248H292.006L292.678 17.896C291.558 19.816 290.134 21.52 288.406 23.008C286.694 24.496 284.806 25.784 282.742 26.872H293.302V35.344H280.462ZM282.046 33.88H291.742V28.312H282.046V33.88ZM315.118 35.728V23.104H311.686C311.622 25.936 311.054 28.296 309.982 30.184C308.926 32.072 307.55 33.608 305.854 34.792C305.806 34.728 305.702 34.616 305.542 34.456C305.382 34.312 305.214 34.16 305.038 34C304.878 33.84 304.758 33.744 304.678 33.712C306.342 32.656 307.67 31.232 308.662 29.44C309.654 27.648 310.15 25.352 310.15 22.552V15.88C311.03 15.832 311.99 15.72 313.03 15.544C314.086 15.368 315.102 15.152 316.078 14.896C317.07 14.64 317.91 14.368 318.598 14.08L319.438 15.4C318.734 15.688 317.926 15.952 317.014 16.192C316.102 16.432 315.174 16.64 314.23 16.816C313.302 16.976 312.454 17.096 311.686 17.176V21.64H319.918V23.104H316.606V35.728H315.118ZM298.822 35.8C298.758 35.752 298.63 35.672 298.438 35.56C298.246 35.448 298.054 35.336 297.862 35.224C297.686 35.128 297.55 35.072 297.454 35.056C298.334 34.016 298.982 32.72 299.398 31.168C299.814 29.6 300.022 27.872 300.022 25.984V19.552H307.702V26.704H301.51C301.462 28.672 301.206 30.392 300.742 31.864C300.294 33.32 299.654 34.632 298.822 35.8ZM301.534 25.312H306.238V20.968H301.534V25.312ZM298.822 17.032V15.64H308.446V17.032H298.822Z" fill="black"/>
</svg>
